<svg xmlns="http://www.w3.org/2000/svg" xmlns:xlink="http://www.w3.org/1999/xlink" width="480" zoomAndPan="magnify" viewBox="0 0 360 149.999998" height="200" preserveAspectRatio="xMidYMid meet" version="1.0"><defs><g/><clipPath id="c6a4ebf873"><path d="M 217 93 L 221.636719 93 L 221.636719 97 L 217 97 Z M 217 93 " clip-rule="nonzero"/></clipPath><clipPath id="44731e2e5f"><path d="M 214 110 L 220 110 L 220 114.910156 L 214 114.910156 Z M 214 110 " clip-rule="nonzero"/></clipPath><clipPath id="7f4895f01b"><path d="M 182 110 L 188 110 L 188 114.910156 L 182 114.910156 Z M 182 110 " clip-rule="nonzero"/></clipPath><clipPath id="dd706053eb"><path d="M 192 81.910156 L 209 81.910156 L 209 88 L 192 88 Z M 192 81.910156 " clip-rule="nonzero"/></clipPath><clipPath id="c7f957787e"><path d="M 23.175781 27.480469 L 86.925781 27.480469 L 86.925781 91 L 23.175781 91 Z M 23.175781 27.480469 " clip-rule="nonzero"/></clipPath><clipPath id="1d24ea8fee"><path d="M 74 73 L 82 73 L 82 79.320312 L 74 79.320312 Z M 74 73 " clip-rule="nonzero"/></clipPath><clipPath id="3d4493891e"><path d="M 27 73 L 36 73 L 36 79.320312 L 27 79.320312 Z M 27 73 " clip-rule="nonzero"/></clipPath><clipPath id="e399541099"><path d="M 43 31.320312 L 67 31.320312 L 67 40 L 43 40 Z M 43 31.320312 " clip-rule="nonzero"/></clipPath></defs><path fill="#38b6ff" d="M 54.9375 0 C 24.613281 0 0.0078125 24.515625 0.0078125 54.75 C 0.0078125 81.359375 42.484375 135.839844 52.722656 148.59375 C 53.859375 150 55.984375 150 57.121094 148.59375 C 67.359375 135.839844 109.835938 81.332031 109.835938 54.75 C 109.867188 24.515625 85.261719 0 54.9375 0 Z M 54.9375 98.664062 C 43.113281 98.664062 32.039062 94.082031 23.6875 85.761719 C 15.335938 77.441406 10.726562 66.363281 10.726562 54.601562 C 10.726562 42.835938 15.335938 31.761719 23.6875 23.4375 C 32.039062 15.085938 43.113281 10.476562 54.9375 10.476562 C 66.761719 10.476562 77.835938 15.058594 86.1875 23.378906 C 94.539062 31.699219 99.148438 42.777344 99.148438 54.539062 C 99.148438 66.304688 94.539062 77.378906 86.1875 85.703125 C 77.835938 94.082031 66.761719 98.664062 54.9375 98.664062 Z M 54.9375 98.664062 " fill-opacity="1" fill-rule="nonzero"/><path fill="#38b6ff" d="M 75.503906 61.753906 L 75.171875 61.753906 C 75.652344 61.003906 75.921875 60.109375 75.921875 59.148438 L 75.921875 55.675781 C 75.921875 53.191406 74.066406 51.15625 71.671875 50.859375 L 71.460938 49.871094 L 72.03125 49.871094 L 72.03125 49.152344 L 75.683594 49.152344 C 75.890625 49.152344 76.042969 48.972656 76.042969 48.792969 L 76.042969 46.21875 C 76.042969 46.007812 75.863281 45.859375 75.683594 45.859375 L 71.492188 45.859375 C 71.28125 45.859375 71.132812 46.039062 71.132812 46.21875 L 71.132812 48.285156 L 68.976562 38.882812 C 68.828125 38.167969 68.199219 37.6875 67.480469 37.6875 L 60.863281 37.6875 L 60.265625 35.113281 C 60.054688 34.214844 59.457031 33.617188 58.769531 33.617188 L 51.136719 33.617188 C 50.449219 33.617188 49.847656 34.214844 49.640625 35.113281 L 49.039062 37.6875 L 42.425781 37.6875 C 41.707031 37.6875 41.078125 38.195312 40.929688 38.882812 L 38.652344 48.851562 L 38.652344 46.21875 C 38.652344 46.007812 38.472656 45.859375 38.292969 45.859375 L 34.074219 45.859375 C 33.863281 45.859375 33.714844 46.039062 33.714844 46.21875 L 33.714844 48.792969 C 33.714844 49.003906 33.894531 49.152344 34.074219 49.152344 L 37.726562 49.152344 L 37.726562 49.871094 L 38.414062 49.871094 L 38.175781 50.886719 C 35.78125 51.1875 33.921875 53.253906 33.921875 55.707031 L 33.921875 59.179688 C 33.921875 60.136719 34.191406 61.035156 34.671875 61.785156 L 34.34375 61.785156 C 33.355469 61.785156 32.578125 62.59375 32.578125 63.550781 C 32.578125 64.539062 33.386719 65.316406 34.34375 65.316406 L 34.613281 65.316406 L 34.613281 68.609375 C 34.613281 69.714844 35.511719 70.613281 36.617188 70.613281 L 39.371094 70.613281 C 40.480469 70.613281 41.378906 69.714844 41.378906 68.609375 L 41.378906 65.316406 L 68.4375 65.316406 L 68.4375 68.609375 C 68.4375 69.714844 69.335938 70.613281 70.445312 70.613281 L 73.199219 70.613281 C 74.304688 70.613281 75.203125 69.714844 75.203125 68.609375 L 75.203125 65.316406 L 75.472656 65.316406 C 76.460938 65.316406 77.238281 64.507812 77.238281 63.550781 C 77.296875 62.53125 76.488281 61.753906 75.503906 61.753906 Z M 58.082031 35.679688 L 58.199219 35.679688 C 58.46875 35.679688 58.679688 35.890625 58.679688 36.160156 L 58.679688 36.28125 C 58.679688 36.550781 58.46875 36.757812 58.199219 36.757812 L 58.082031 36.757812 C 57.8125 36.757812 57.601562 36.550781 57.601562 36.28125 L 57.601562 36.160156 C 57.601562 35.921875 57.8125 35.679688 58.082031 35.679688 Z M 56.523438 35.113281 C 56.523438 34.84375 56.734375 34.632812 57.003906 34.632812 L 57.121094 34.632812 C 57.390625 34.632812 57.601562 34.84375 57.601562 35.113281 L 57.601562 35.234375 C 57.601562 35.5 57.390625 35.710938 57.121094 35.710938 L 57.03125 35.710938 C 56.761719 35.710938 56.554688 35.5 56.554688 35.234375 L 56.554688 35.113281 Z M 55.957031 35.679688 L 56.074219 35.679688 C 56.34375 35.679688 56.554688 35.890625 56.554688 36.160156 L 56.554688 36.28125 C 56.554688 36.550781 56.34375 36.757812 56.074219 36.757812 L 55.957031 36.757812 C 55.6875 36.757812 55.476562 36.550781 55.476562 36.28125 L 55.476562 36.160156 C 55.476562 35.921875 55.6875 35.679688 55.957031 35.679688 Z M 54.398438 35.113281 C 54.398438 34.84375 54.609375 34.632812 54.878906 34.632812 L 54.996094 34.632812 C 55.265625 34.632812 55.476562 34.84375 55.476562 35.113281 L 55.476562 35.234375 C 55.476562 35.5 55.265625 35.710938 54.996094 35.710938 L 54.878906 35.710938 C 54.609375 35.710938 54.398438 35.5 54.398438 35.234375 Z M 53.800781 35.679688 L 53.917969 35.679688 C 54.1875 35.679688 54.398438 35.890625 54.398438 36.160156 L 54.398438 36.28125 C 54.398438 36.550781 54.1875 36.757812 53.917969 36.757812 L 53.800781 36.757812 C 53.53125 36.757812 53.320312 36.550781 53.320312 36.28125 L 53.320312 36.160156 C 53.320312 35.921875 53.53125 35.679688 53.800781 35.679688 Z M 52.242188 35.113281 C 52.242188 34.84375 52.453125 34.632812 52.722656 34.632812 L 52.84375 34.632812 C 53.113281 34.632812 53.320312 34.84375 53.320312 35.113281 L 53.320312 35.234375 C 53.320312 35.5 53.113281 35.710938 52.84375 35.710938 L 52.722656 35.710938 C 52.453125 35.710938 52.242188 35.5 52.242188 35.234375 Z M 51.195312 36.160156 C 51.195312 35.890625 51.40625 35.679688 51.675781 35.679688 L 51.792969 35.679688 C 52.0625 35.679688 52.273438 35.890625 52.273438 36.160156 L 52.273438 36.28125 C 52.273438 36.550781 52.0625 36.757812 51.792969 36.757812 L 51.675781 36.757812 C 51.40625 36.757812 51.195312 36.550781 51.195312 36.28125 Z M 42.515625 40.472656 C 42.632812 40.023438 43.054688 39.691406 43.503906 39.691406 L 66.523438 39.691406 C 67 39.691406 67.390625 40.023438 67.511719 40.472656 L 69.214844 49.691406 L 40.957031 49.691406 Z M 39.941406 60.527344 C 38.234375 60.527344 36.855469 59.148438 36.855469 57.445312 C 36.855469 55.738281 38.234375 54.359375 39.941406 54.359375 C 41.648438 54.359375 43.023438 55.738281 43.023438 57.445312 C 43.023438 59.148438 41.648438 60.527344 39.941406 60.527344 Z M 63.769531 61.246094 L 46.105469 61.246094 C 45.898438 61.246094 45.746094 61.09375 45.746094 60.886719 C 45.746094 60.675781 45.898438 60.527344 46.105469 60.527344 L 63.769531 60.527344 C 63.976562 60.527344 64.128906 60.675781 64.128906 60.886719 C 64.128906 61.09375 63.976562 61.246094 63.769531 61.246094 Z M 63.769531 59.03125 L 46.105469 59.03125 C 45.898438 59.03125 45.746094 58.878906 45.746094 58.671875 C 45.746094 58.460938 45.898438 58.3125 46.105469 58.3125 L 63.769531 58.3125 C 63.976562 58.3125 64.128906 58.460938 64.128906 58.671875 C 64.128906 58.851562 63.976562 59.03125 63.769531 59.03125 Z M 63.769531 56.816406 L 46.105469 56.816406 C 45.898438 56.816406 45.746094 56.664062 45.746094 56.457031 C 45.746094 56.246094 45.898438 56.097656 46.105469 56.097656 L 63.769531 56.097656 C 63.976562 56.097656 64.128906 56.246094 64.128906 56.457031 C 64.128906 56.636719 63.976562 56.816406 63.769531 56.816406 Z M 69.933594 60.527344 C 68.226562 60.527344 66.851562 59.148438 66.851562 57.445312 C 66.851562 55.738281 68.226562 54.359375 69.933594 54.359375 C 71.640625 54.359375 73.019531 55.738281 73.019531 57.445312 C 73.046875 59.148438 71.671875 60.527344 69.933594 60.527344 Z M 69.933594 60.527344 " fill-opacity="1" fill-rule="nonzero"/><g fill="#64bfd9" fill-opacity="0.4"><g transform="translate(119.915401, 69.749998)"><g><path d="M 16.265625 -34.265625 C 20.640625 -34.265625 22.828125 -31.9375 22.828125 -27.28125 L 22.828125 -6.984375 C 22.828125 -2.328125 20.640625 0 16.265625 0 L 2.640625 0 L 2.640625 -34.265625 Z M 15.40625 -6.140625 L 15.40625 -28.171875 C 15.40625 -28.460938 15.304688 -28.710938 15.109375 -28.921875 C 14.921875 -29.128906 14.6875 -29.234375 14.40625 -29.234375 L 10.0625 -29.234375 L 10.0625 -5.078125 L 14.40625 -5.078125 C 14.6875 -5.078125 14.921875 -5.179688 15.109375 -5.390625 C 15.304688 -5.609375 15.40625 -5.859375 15.40625 -6.140625 Z M 15.40625 -6.140625 "/></g></g></g><g fill="#64bfd9" fill-opacity="0.4"><g transform="translate(145.599546, 69.749998)"><g><path d="M 13.40625 -26.375 L 14.78125 -26.375 L 14.78125 -19.5 L 11.28125 -19.5 C 10.082031 -19.5 9.484375 -18.878906 9.484375 -17.640625 L 9.484375 0 L 2.390625 0 L 2.390625 -25.84375 L 8.84375 -25.84375 L 8.84375 -23.359375 C 9.863281 -25.367188 11.382812 -26.375 13.40625 -26.375 Z M 13.40625 -26.375 "/></g></g></g><g fill="#64bfd9" fill-opacity="0.4"><g transform="translate(161.1689, 69.749998)"><g><path d="M 21.5 -19.390625 L 21.5 -6.46875 C 21.5 -1.800781 19.3125 0.53125 14.9375 0.53125 L 8.953125 0.53125 C 4.578125 0.53125 2.390625 -1.800781 2.390625 -6.46875 L 2.390625 -19.390625 C 2.390625 -24.046875 4.578125 -26.375 8.953125 -26.375 L 14.9375 -26.375 C 19.3125 -26.375 21.5 -24.046875 21.5 -19.390625 Z M 14.40625 -4.984375 L 14.40625 -20.921875 C 14.40625 -21.203125 14.304688 -21.445312 14.109375 -21.65625 C 13.921875 -21.875 13.6875 -21.984375 13.40625 -21.984375 L 10.484375 -21.984375 C 10.203125 -21.984375 9.960938 -21.875 9.765625 -21.65625 C 9.578125 -21.445312 9.484375 -21.203125 9.484375 -20.921875 L 9.484375 -4.984375 C 9.484375 -4.703125 9.578125 -4.453125 9.765625 -4.234375 C 9.960938 -4.023438 10.203125 -3.921875 10.484375 -3.921875 L 13.40625 -3.921875 C 13.6875 -3.921875 13.921875 -4.023438 14.109375 -4.234375 C 14.304688 -4.453125 14.40625 -4.703125 14.40625 -4.984375 Z M 14.40625 -4.984375 "/></g></g></g><g fill="#64bfd9" fill-opacity="0.4"><g transform="translate(185.105465, 69.749998)"><g><path d="M 14.9375 0.53125 L 13.828125 0.53125 C 12.023438 0.53125 10.578125 0.109375 9.484375 -0.734375 L 9.484375 8.421875 L 2.390625 8.421875 L 2.390625 -25.84375 L 8.375 -25.84375 L 8.375 -23.9375 C 9.46875 -25.5625 11.285156 -26.375 13.828125 -26.375 L 14.9375 -26.375 C 19.3125 -26.375 21.5 -24.046875 21.5 -19.390625 L 21.5 -6.46875 C 21.5 -1.800781 19.3125 0.53125 14.9375 0.53125 Z M 9.484375 -20.234375 L 9.484375 -5.609375 C 9.484375 -5.328125 9.578125 -5.082031 9.765625 -4.875 C 9.960938 -4.664062 10.203125 -4.5625 10.484375 -4.5625 L 13.40625 -4.5625 C 13.6875 -4.5625 13.921875 -4.664062 14.109375 -4.875 C 14.304688 -5.082031 14.40625 -5.328125 14.40625 -5.609375 L 14.40625 -20.234375 C 14.40625 -20.515625 14.304688 -20.757812 14.109375 -20.96875 C 13.921875 -21.1875 13.6875 -21.296875 13.40625 -21.296875 L 10.484375 -21.296875 C 10.203125 -21.296875 9.960938 -21.1875 9.765625 -20.96875 C 9.578125 -20.757812 9.484375 -20.515625 9.484375 -20.234375 Z M 9.484375 -20.234375 "/></g></g></g><g fill="#64bfd9" fill-opacity="0.4"><g transform="translate(209.042029, 69.749998)"><g/></g></g><g fill="#64bfd9" fill-opacity="0.4"><g transform="translate(219.739348, 69.749998)"><g><path d="M 22.515625 -34.265625 L 15.15625 -12.5 L 15.15625 0 L 7.734375 0 L 7.734375 -12.5 L 0.375 -34.265625 L 7.359375 -34.265625 L 11.4375 -19.96875 L 15.515625 -34.265625 Z M 22.515625 -34.265625 "/></g></g></g><g fill="#64bfd9" fill-opacity="0.4"><g transform="translate(242.775639, 69.749998)"><g><path d="M 21.5 -19.390625 L 21.5 -6.46875 C 21.5 -1.800781 19.3125 0.53125 14.9375 0.53125 L 8.953125 0.53125 C 4.578125 0.53125 2.390625 -1.800781 2.390625 -6.46875 L 2.390625 -19.390625 C 2.390625 -24.046875 4.578125 -26.375 8.953125 -26.375 L 14.9375 -26.375 C 19.3125 -26.375 21.5 -24.046875 21.5 -19.390625 Z M 14.40625 -4.984375 L 14.40625 -20.921875 C 14.40625 -21.203125 14.304688 -21.445312 14.109375 -21.65625 C 13.921875 -21.875 13.6875 -21.984375 13.40625 -21.984375 L 10.484375 -21.984375 C 10.203125 -21.984375 9.960938 -21.875 9.765625 -21.65625 C 9.578125 -21.445312 9.484375 -21.203125 9.484375 -20.921875 L 9.484375 -4.984375 C 9.484375 -4.703125 9.578125 -4.453125 9.765625 -4.234375 C 9.960938 -4.023438 10.203125 -3.921875 10.484375 -3.921875 L 13.40625 -3.921875 C 13.6875 -3.921875 13.921875 -4.023438 14.109375 -4.234375 C 14.304688 -4.453125 14.40625 -4.703125 14.40625 -4.984375 Z M 14.40625 -4.984375 "/></g></g></g><g fill="#64bfd9" fill-opacity="0.4"><g transform="translate(266.712203, 69.749998)"><g><path d="M 14.40625 -25.84375 L 21.5 -25.84375 L 21.5 0 L 15.046875 0 L 15.046875 -1.328125 C 13.953125 -0.0859375 12.289062 0.53125 10.0625 0.53125 L 8.953125 0.53125 C 4.578125 0.53125 2.390625 -1.800781 2.390625 -6.46875 L 2.390625 -25.84375 L 9.484375 -25.84375 L 9.484375 -5.609375 C 9.484375 -5.328125 9.578125 -5.082031 9.765625 -4.875 C 9.960938 -4.664062 10.203125 -4.5625 10.484375 -4.5625 L 13.40625 -4.5625 C 13.6875 -4.5625 13.921875 -4.664062 14.109375 -4.875 C 14.304688 -5.082031 14.40625 -5.328125 14.40625 -5.609375 Z M 14.40625 -25.84375 "/></g></g></g><g fill="#ffffff" fill-opacity="1"><g transform="translate(119.915401, 69.749998)"><g><path d="M 16.265625 -34.265625 C 20.640625 -34.265625 22.828125 -31.9375 22.828125 -27.28125 L 22.828125 -6.984375 C 22.828125 -2.328125 20.640625 0 16.265625 0 L 2.640625 0 L 2.640625 -34.265625 Z M 15.40625 -6.140625 L 15.40625 -28.171875 C 15.40625 -28.460938 15.304688 -28.710938 15.109375 -28.921875 C 14.921875 -29.128906 14.6875 -29.234375 14.40625 -29.234375 L 10.0625 -29.234375 L 10.0625 -5.078125 L 14.40625 -5.078125 C 14.6875 -5.078125 14.921875 -5.179688 15.109375 -5.390625 C 15.304688 -5.609375 15.40625 -5.859375 15.40625 -6.140625 Z M 15.40625 -6.140625 "/></g></g></g><g fill="#ffffff" fill-opacity="1"><g transform="translate(145.599546, 69.749998)"><g><path d="M 13.40625 -26.375 L 14.78125 -26.375 L 14.78125 -19.5 L 11.28125 -19.5 C 10.082031 -19.5 9.484375 -18.878906 9.484375 -17.640625 L 9.484375 0 L 2.390625 0 L 2.390625 -25.84375 L 8.84375 -25.84375 L 8.84375 -23.359375 C 9.863281 -25.367188 11.382812 -26.375 13.40625 -26.375 Z M 13.40625 -26.375 "/></g></g></g><g fill="#ffffff" fill-opacity="1"><g transform="translate(161.1689, 69.749998)"><g><path d="M 21.5 -19.390625 L 21.5 -6.46875 C 21.5 -1.800781 19.3125 0.53125 14.9375 0.53125 L 8.953125 0.53125 C 4.578125 0.53125 2.390625 -1.800781 2.390625 -6.46875 L 2.390625 -19.390625 C 2.390625 -24.046875 4.578125 -26.375 8.953125 -26.375 L 14.9375 -26.375 C 19.3125 -26.375 21.5 -24.046875 21.5 -19.390625 Z M 14.40625 -4.984375 L 14.40625 -20.921875 C 14.40625 -21.203125 14.304688 -21.445312 14.109375 -21.65625 C 13.921875 -21.875 13.6875 -21.984375 13.40625 -21.984375 L 10.484375 -21.984375 C 10.203125 -21.984375 9.960938 -21.875 9.765625 -21.65625 C 9.578125 -21.445312 9.484375 -21.203125 9.484375 -20.921875 L 9.484375 -4.984375 C 9.484375 -4.703125 9.578125 -4.453125 9.765625 -4.234375 C 9.960938 -4.023438 10.203125 -3.921875 10.484375 -3.921875 L 13.40625 -3.921875 C 13.6875 -3.921875 13.921875 -4.023438 14.109375 -4.234375 C 14.304688 -4.453125 14.40625 -4.703125 14.40625 -4.984375 Z M 14.40625 -4.984375 "/></g></g></g><g fill="#ffffff" fill-opacity="1"><g transform="translate(185.105465, 69.749998)"><g><path d="M 14.9375 0.53125 L 13.828125 0.53125 C 12.023438 0.53125 10.578125 0.109375 9.484375 -0.734375 L 9.484375 8.421875 L 2.390625 8.421875 L 2.390625 -25.84375 L 8.375 -25.84375 L 8.375 -23.9375 C 9.46875 -25.5625 11.285156 -26.375 13.828125 -26.375 L 14.9375 -26.375 C 19.3125 -26.375 21.5 -24.046875 21.5 -19.390625 L 21.5 -6.46875 C 21.5 -1.800781 19.3125 0.53125 14.9375 0.53125 Z M 9.484375 -20.234375 L 9.484375 -5.609375 C 9.484375 -5.328125 9.578125 -5.082031 9.765625 -4.875 C 9.960938 -4.664062 10.203125 -4.5625 10.484375 -4.5625 L 13.40625 -4.5625 C 13.6875 -4.5625 13.921875 -4.664062 14.109375 -4.875 C 14.304688 -5.082031 14.40625 -5.328125 14.40625 -5.609375 L 14.40625 -20.234375 C 14.40625 -20.515625 14.304688 -20.757812 14.109375 -20.96875 C 13.921875 -21.1875 13.6875 -21.296875 13.40625 -21.296875 L 10.484375 -21.296875 C 10.203125 -21.296875 9.960938 -21.1875 9.765625 -20.96875 C 9.578125 -20.757812 9.484375 -20.515625 9.484375 -20.234375 Z M 9.484375 -20.234375 "/></g></g></g><g fill="#ffffff" fill-opacity="1"><g transform="translate(209.042029, 69.749998)"><g/></g></g><g fill="#ffffff" fill-opacity="1"><g transform="translate(219.739348, 69.749998)"><g><path d="M 22.515625 -34.265625 L 15.15625 -12.5 L 15.15625 0 L 7.734375 0 L 7.734375 -12.5 L 0.375 -34.265625 L 7.359375 -34.265625 L 11.4375 -19.96875 L 15.515625 -34.265625 Z M 22.515625 -34.265625 "/></g></g></g><g fill="#ffffff" fill-opacity="1"><g transform="translate(242.775639, 69.749998)"><g><path d="M 21.5 -19.390625 L 21.5 -6.46875 C 21.5 -1.800781 19.3125 0.53125 14.9375 0.53125 L 8.953125 0.53125 C 4.578125 0.53125 2.390625 -1.800781 2.390625 -6.46875 L 2.390625 -19.390625 C 2.390625 -24.046875 4.578125 -26.375 8.953125 -26.375 L 14.9375 -26.375 C 19.3125 -26.375 21.5 -24.046875 21.5 -19.390625 Z M 14.40625 -4.984375 L 14.40625 -20.921875 C 14.40625 -21.203125 14.304688 -21.445312 14.109375 -21.65625 C 13.921875 -21.875 13.6875 -21.984375 13.40625 -21.984375 L 10.484375 -21.984375 C 10.203125 -21.984375 9.960938 -21.875 9.765625 -21.65625 C 9.578125 -21.445312 9.484375 -21.203125 9.484375 -20.921875 L 9.484375 -4.984375 C 9.484375 -4.703125 9.578125 -4.453125 9.765625 -4.234375 C 9.960938 -4.023438 10.203125 -3.921875 10.484375 -3.921875 L 13.40625 -3.921875 C 13.6875 -3.921875 13.921875 -4.023438 14.109375 -4.234375 C 14.304688 -4.453125 14.40625 -4.703125 14.40625 -4.984375 Z M 14.40625 -4.984375 "/></g></g></g><g fill="#ffffff" fill-opacity="1"><g transform="translate(266.712203, 69.749998)"><g><path d="M 14.40625 -25.84375 L 21.5 -25.84375 L 21.5 0 L 15.046875 0 L 15.046875 -1.328125 C 13.953125 -0.0859375 12.289062 0.53125 10.0625 0.53125 L 8.953125 0.53125 C 4.578125 0.53125 2.390625 -1.800781 2.390625 -6.46875 L 2.390625 -25.84375 L 9.484375 -25.84375 L 9.484375 -5.609375 C 9.484375 -5.328125 9.578125 -5.082031 9.765625 -4.875 C 9.960938 -4.664062 10.203125 -4.5625 10.484375 -4.5625 L 13.40625 -4.5625 C 13.6875 -4.5625 13.921875 -4.664062 14.109375 -4.875 C 14.304688 -5.082031 14.40625 -5.328125 14.40625 -5.609375 Z M 14.40625 -25.84375 "/></g></g></g><g fill="#64bfd9" fill-opacity="0.4"><g transform="translate(290.657579, 69.749998)"><g/></g></g><g fill="#ffffff" fill-opacity="1"><g transform="translate(290.657579, 69.749998)"><g/></g></g><g fill="#64bfd9" fill-opacity="0.4"><g transform="translate(161.165399, 115.499995)"><g><path d="M 0.6875 -27.96875 L 0.6875 -34.265625 L 19.234375 -34.265625 L 19.234375 -27.96875 L 13.671875 -27.96875 L 13.671875 0 L 6.25 0 L 6.25 -27.96875 Z M 0.6875 -27.96875 "/></g></g></g><g fill="#ffffff" fill-opacity="1"><g transform="translate(161.165399, 115.499995)"><g><path d="M 0.6875 -27.96875 L 0.6875 -34.265625 L 19.234375 -34.265625 L 19.234375 -27.96875 L 13.671875 -27.96875 L 13.671875 0 L 6.25 0 L 6.25 -27.96875 Z M 0.6875 -27.96875 "/></g></g></g><g fill="#64bfd9" fill-opacity="0.4"><g transform="translate(181.134148, 115.499995)"><g/></g></g><g fill="#64bfd9" fill-opacity="0.4"><g transform="translate(191.831466, 115.499995)"><g/></g></g><g fill="#64bfd9" fill-opacity="0.4"><g transform="translate(202.528784, 115.499995)"><g/></g></g><g fill="#64bfd9" fill-opacity="0.4"><g transform="translate(213.226103, 115.499995)"><g/></g></g><g fill="#ffffff" fill-opacity="1"><g transform="translate(181.134148, 115.499995)"><g/></g></g><g fill="#ffffff" fill-opacity="1"><g transform="translate(191.831466, 115.499995)"><g/></g></g><g fill="#ffffff" fill-opacity="1"><g transform="translate(202.528784, 115.499995)"><g/></g></g><g fill="#ffffff" fill-opacity="1"><g transform="translate(213.226103, 115.499995)"><g/></g></g><g fill="#64bfd9" fill-opacity="0.4"><g transform="translate(223.93102, 115.499995)"><g><path d="M 11.5 -8.46875 L 7.578125 0 L 0.21875 0 L 7.421875 -13.765625 L 0.6875 -25.84375 L 8.421875 -25.84375 L 11.5 -18.109375 L 14.5625 -25.84375 L 22.296875 -25.84375 L 15.578125 -13.765625 L 22.78125 0 L 15.40625 0 Z M 11.5 -8.46875 "/></g></g></g><g fill="#64bfd9" fill-opacity="0.4"><g transform="translate(247.073226, 115.499995)"><g><path d="M 9.609375 -29.078125 C 8.847656 -28.335938 7.9375 -27.96875 6.875 -27.96875 C 5.820312 -27.96875 4.90625 -28.347656 4.125 -29.109375 C 3.351562 -29.867188 2.96875 -30.785156 2.96875 -31.859375 C 2.96875 -32.929688 3.351562 -33.847656 4.125 -34.609375 C 4.90625 -35.367188 5.820312 -35.75 6.875 -35.75 C 7.9375 -35.75 8.847656 -35.367188 9.609375 -34.609375 C 10.367188 -33.847656 10.75 -32.921875 10.75 -31.828125 C 10.75 -30.734375 10.367188 -29.816406 9.609375 -29.078125 Z M 3.34375 0 L 3.34375 -25.84375 L 10.4375 -25.84375 L 10.4375 0 Z M 3.34375 0 "/></g></g></g><g fill="#ffffff" fill-opacity="1"><g transform="translate(223.93102, 115.499995)"><g><path d="M 11.5 -8.46875 L 7.578125 0 L 0.21875 0 L 7.421875 -13.765625 L 0.6875 -25.84375 L 8.421875 -25.84375 L 11.5 -18.109375 L 14.5625 -25.84375 L 22.296875 -25.84375 L 15.578125 -13.765625 L 22.78125 0 L 15.40625 0 Z M 11.5 -8.46875 "/></g></g></g><g fill="#ffffff" fill-opacity="1"><g transform="translate(247.073226, 115.499995)"><g><path d="M 9.609375 -29.078125 C 8.847656 -28.335938 7.9375 -27.96875 6.875 -27.96875 C 5.820312 -27.96875 4.90625 -28.347656 4.125 -29.109375 C 3.351562 -29.867188 2.96875 -30.785156 2.96875 -31.859375 C 2.96875 -32.929688 3.351562 -33.847656 4.125 -34.609375 C 4.90625 -35.367188 5.820312 -35.75 6.875 -35.75 C 7.9375 -35.75 8.847656 -35.367188 9.609375 -34.609375 C 10.367188 -33.847656 10.75 -32.921875 10.75 -31.828125 C 10.75 -30.734375 10.367188 -29.816406 9.609375 -29.078125 Z M 3.34375 0 L 3.34375 -25.84375 L 10.4375 -25.84375 L 10.4375 0 Z M 3.34375 0 "/></g></g></g><g clip-path="url(#c6a4ebf873)"><path fill="#1a9df1" d="M 217.75 93.277344 C 217.40625 93.371094 217.566406 94.601562 217.574219 94.867188 C 217.582031 95.027344 217.414062 95.089844 217.277344 95.121094 C 217.453125 95.484375 217.628906 95.851562 217.796875 96.226562 C 217.8125 96.265625 217.835938 96.304688 217.863281 96.347656 C 217.910156 96.089844 218.1875 96.035156 218.1875 96.035156 L 218.773438 96.027344 C 218.773438 96.027344 220.757812 96.289062 220.988281 95.484375 C 221.765625 92.804688 218.085938 93.1875 217.75 93.277344 Z M 217.75 93.277344 " fill-opacity="1" fill-rule="nonzero"/></g><path fill="#1a9df1" d="M 183.425781 96.027344 L 183.988281 96.035156 C 184.203125 95.5625 184.425781 95.105469 184.640625 94.667969 C 184.675781 94.226562 184.746094 93.355469 184.457031 93.277344 C 184.113281 93.1875 180.445312 92.804688 181.21875 95.484375 C 181.453125 96.289062 183.425781 96.027344 183.425781 96.027344 Z M 183.425781 96.027344 " fill-opacity="1" fill-rule="nonzero"/><g clip-path="url(#44731e2e5f)"><path fill="#1a9df1" d="M 219.421875 114.652344 L 219.421875 110.53125 C 219.164062 110.75 218.851562 110.917969 218.484375 111.0625 L 218.355469 111.117188 L 214.292969 111.1875 L 214.292969 114.652344 C 214.292969 114.867188 214.472656 115.042969 214.679688 115.042969 L 219.027344 115.042969 C 219.246094 115.042969 219.421875 114.867188 219.421875 114.652344 Z M 219.421875 114.652344 " fill-opacity="1" fill-rule="nonzero"/></g><g clip-path="url(#7f4895f01b)"><path fill="#1a9df1" d="M 187.722656 114.652344 L 187.722656 111.195312 L 183.339844 111.117188 L 183.210938 111.0625 C 182.988281 110.972656 182.777344 110.875 182.59375 110.757812 L 182.59375 114.652344 C 182.59375 114.867188 182.769531 115.042969 182.980469 115.042969 L 187.328125 115.042969 C 187.546875 115.042969 187.722656 114.867188 187.722656 114.652344 Z M 187.722656 114.652344 " fill-opacity="1" fill-rule="nonzero"/></g><g clip-path="url(#dd706053eb)"><path fill="#1a9df1" d="M 208.097656 85 C 208.003906 84.664062 207.804688 84.363281 207.523438 84.152344 C 207.382812 84.046875 207.226562 83.960938 207.058594 83.902344 L 206.789062 83.8125 C 206.1875 83.617188 205.707031 83.160156 205.480469 82.570312 L 205.433594 82.441406 C 205.355469 82.253906 205.214844 82.097656 205.035156 82.011719 C 204.921875 81.953125 204.804688 81.929688 204.683594 81.929688 L 197.011719 81.929688 C 196.890625 81.929688 196.773438 81.953125 196.660156 82.011719 C 196.480469 82.097656 196.339844 82.253906 196.261719 82.441406 L 196.214844 82.570312 C 195.988281 83.160156 195.507812 83.617188 194.90625 83.8125 L 194.636719 83.902344 C 194.472656 83.960938 194.3125 84.046875 194.171875 84.152344 C 193.890625 84.363281 193.691406 84.664062 193.597656 85 L 192.988281 87.1875 C 195.144531 87.074219 198.257812 87.03125 200.847656 87.03125 C 203.4375 87.03125 206.550781 87.074219 208.707031 87.1875 Z M 197.820312 86.386719 L 197.339844 86.386719 L 197.339844 83.980469 L 196.476562 83.980469 L 196.476562 83.542969 L 198.683594 83.542969 L 198.683594 83.980469 L 197.820312 83.980469 Z M 201.09375 86.386719 L 200.808594 85.742188 L 199.382812 85.742188 L 199.097656 86.386719 L 198.585938 86.386719 L 199.839844 83.542969 L 200.351562 83.542969 L 201.605469 86.386719 Z M 203.683594 86.386719 L 202.984375 85.316406 L 202.964844 85.316406 L 202.265625 86.386719 L 201.667969 86.386719 L 202.644531 84.925781 L 201.734375 83.542969 L 202.328125 83.542969 L 202.964844 84.503906 L 202.984375 84.503906 L 203.621094 83.542969 L 204.214844 83.542969 L 203.308594 84.925781 L 204.285156 86.386719 Z M 205.21875 86.386719 L 204.738281 86.386719 L 204.738281 83.542969 L 205.21875 83.542969 Z M 205.21875 86.386719 " fill-opacity="1" fill-rule="nonzero"/></g><path fill="#1a9df1" d="M 199.578125 85.296875 L 200.613281 85.296875 L 200.09375 84.125 Z M 199.578125 85.296875 " fill-opacity="1" fill-rule="nonzero"/><path fill="#1a9df1" d="M 217.070312 96.554688 C 215.757812 93.667969 214.222656 91.117188 212.304688 89.117188 C 211.75 88.542969 211.007812 88.191406 210.214844 88.101562 C 206.960938 87.742188 194.734375 87.742188 191.480469 88.101562 C 190.6875 88.191406 189.945312 88.542969 189.394531 89.117188 C 187.472656 91.117188 185.9375 93.667969 184.625 96.554688 C 184.484375 96.882812 184.273438 97.179688 184.035156 97.433594 C 182.21875 99.402344 181.621094 101.65625 182.035156 104.152344 L 182.179688 108.652344 C 182.179688 109.566406 182.738281 110.019531 183.5 110.316406 L 189.058594 110.421875 C 190.847656 110.445312 191.128906 109.53125 192.886719 109.53125 L 208.808594 109.53125 C 210.558594 109.53125 210.847656 110.445312 212.640625 110.421875 L 218.195312 110.316406 C 218.957031 110.019531 219.515625 109.566406 219.515625 108.652344 L 219.660156 104.152344 C 220.078125 101.65625 219.476562 99.402344 217.660156 97.433594 C 217.421875 97.179688 217.214844 96.882812 217.070312 96.554688 Z M 187.496094 94.292969 L 190.578125 89.691406 C 190.671875 89.558594 190.832031 89.460938 191.007812 89.4375 C 197.695312 88.710938 204.097656 88.765625 211.113281 89.445312 C 211.289062 89.460938 211.449219 89.558594 211.542969 89.691406 L 214.621094 94.292969 C 214.871094 94.660156 214.597656 95.148438 214.136719 95.148438 L 187.984375 95.148438 C 187.53125 95.148438 187.25 94.660156 187.496094 94.292969 Z M 184.78125 99.808594 L 184.03125 102.832031 C 184.03125 102.832031 182.84375 100.613281 184.78125 99.808594 Z M 186.902344 107.492188 C 186.902344 107.875 186.589844 108.1875 186.207031 108.1875 L 185.097656 108.1875 C 184.714844 108.1875 184.402344 107.875 184.402344 107.492188 L 184.402344 106.613281 C 184.402344 106.226562 184.714844 105.914062 185.097656 105.914062 L 186.207031 105.914062 C 186.589844 105.914062 186.902344 106.226562 186.902344 106.613281 Z M 190.546875 103.890625 C 190.460938 104.285156 190.039062 104.507812 189.652344 104.402344 C 188.058594 103.972656 186.4375 103.539062 185.488281 103.128906 C 185.128906 102.972656 184.941406 102.582031 185.035156 102.203125 L 185.519531 100.242188 C 185.898438 99.1875 189.242188 101.707031 189.753906 102.101562 C 189.800781 102.136719 189.839844 102.171875 189.875 102.214844 C 190.277344 102.6875 190.5 103.246094 190.550781 103.878906 C 190.546875 103.882812 190.546875 103.886719 190.546875 103.890625 Z M 206.160156 107.847656 C 206.160156 108.035156 206.011719 108.1875 205.824219 108.1875 L 195.875 108.1875 C 195.6875 108.1875 195.535156 108.035156 195.535156 107.847656 L 195.535156 106.253906 C 195.535156 106.066406 195.6875 105.914062 195.875 105.914062 L 205.824219 105.914062 C 206.011719 105.914062 206.160156 106.066406 206.160156 106.253906 Z M 209.214844 101.128906 L 207.898438 103.988281 C 207.726562 104.363281 207.351562 104.601562 206.941406 104.601562 L 194.753906 104.601562 C 194.34375 104.601562 193.96875 104.363281 193.796875 103.988281 L 192.480469 101.128906 C 192.160156 100.429688 192.671875 99.636719 193.4375 99.636719 L 208.257812 99.636719 C 209.023438 99.636719 209.535156 100.429688 209.214844 101.128906 Z M 212.042969 104.402344 C 211.65625 104.507812 211.234375 104.285156 211.148438 103.890625 C 211.148438 103.886719 211.148438 103.882812 211.144531 103.878906 C 211.195312 103.246094 211.417969 102.6875 211.820312 102.214844 C 211.855469 102.171875 211.898438 102.136719 211.941406 102.101562 C 212.453125 101.707031 215.796875 99.1875 216.179688 100.242188 L 216.664062 102.203125 C 216.757812 102.582031 216.566406 102.972656 216.207031 103.128906 C 215.257812 103.539062 213.636719 103.972656 212.042969 104.402344 Z M 217.292969 107.492188 C 217.292969 107.875 216.980469 108.1875 216.597656 108.1875 L 215.492188 108.1875 C 215.105469 108.1875 214.792969 107.875 214.792969 107.492188 L 214.792969 106.613281 C 214.792969 106.226562 215.105469 105.914062 215.492188 105.914062 L 216.597656 105.914062 C 216.980469 105.914062 217.292969 106.226562 217.292969 106.613281 Z M 217.664062 102.832031 L 216.914062 99.808594 C 218.851562 100.613281 217.664062 102.832031 217.664062 102.832031 Z M 217.664062 102.832031 " fill-opacity="1" fill-rule="nonzero"/><g clip-path="url(#c7f957787e)"><path fill="#000000" d="M 86.691406 59.238281 C 86.691406 60.277344 86.640625 61.316406 86.539062 62.347656 C 86.4375 63.382812 86.285156 64.414062 86.082031 65.433594 C 85.878906 66.453125 85.625 67.460938 85.324219 68.457031 C 85.023438 69.449219 84.671875 70.429688 84.273438 71.390625 C 83.875 72.351562 83.433594 73.289062 82.941406 74.207031 C 82.453125 75.125 81.917969 76.015625 81.339844 76.878906 C 80.761719 77.746094 80.144531 78.578125 79.484375 79.382812 C 78.824219 80.1875 78.125 80.957031 77.390625 81.691406 C 76.65625 82.429688 75.882812 83.125 75.082031 83.785156 C 74.277344 84.445312 73.441406 85.066406 72.578125 85.640625 C 71.710938 86.21875 70.820312 86.753906 69.902344 87.246094 C 68.988281 87.734375 68.046875 88.179688 67.085938 88.578125 C 66.125 88.976562 65.148438 89.324219 64.152344 89.628906 C 63.15625 89.929688 62.148438 90.179688 61.128906 90.382812 C 60.109375 90.585938 59.082031 90.738281 58.046875 90.839844 C 57.011719 90.945312 55.972656 90.996094 54.933594 90.996094 C 53.894531 90.996094 52.855469 90.945312 51.820312 90.839844 C 50.785156 90.738281 49.757812 90.585938 48.738281 90.382812 C 47.71875 90.179688 46.710938 89.929688 45.714844 89.628906 C 44.71875 89.324219 43.742188 88.976562 42.78125 88.578125 C 41.820312 88.179688 40.878906 87.734375 39.964844 87.246094 C 39.046875 86.753906 38.15625 86.21875 37.289062 85.640625 C 36.425781 85.066406 35.589844 84.445312 34.785156 83.785156 C 33.984375 83.125 33.214844 82.429688 32.476562 81.691406 C 31.742188 80.957031 31.042969 80.1875 30.382812 79.382812 C 29.726562 78.578125 29.105469 77.746094 28.527344 76.878906 C 27.949219 76.015625 27.417969 75.125 26.925781 74.207031 C 26.433594 73.289062 25.992188 72.351562 25.59375 71.390625 C 25.195312 70.429688 24.84375 69.449219 24.542969 68.457031 C 24.242188 67.460938 23.988281 66.453125 23.785156 65.433594 C 23.582031 64.414062 23.429688 63.382812 23.328125 62.347656 C 23.226562 61.316406 23.175781 60.277344 23.175781 59.238281 C 23.175781 58.195312 23.226562 57.160156 23.328125 56.125 C 23.429688 55.089844 23.582031 54.0625 23.785156 53.042969 C 23.988281 52.019531 24.242188 51.011719 24.542969 50.019531 C 24.84375 49.023438 25.195312 48.042969 25.59375 47.082031 C 25.992188 46.121094 26.433594 45.183594 26.925781 44.265625 C 27.417969 43.347656 27.949219 42.457031 28.527344 41.59375 C 29.105469 40.726562 29.726562 39.894531 30.382812 39.089844 C 31.042969 38.285156 31.742188 37.515625 32.476562 36.78125 C 33.214844 36.046875 33.984375 35.347656 34.785156 34.6875 C 35.589844 34.027344 36.425781 33.410156 37.289062 32.832031 C 38.15625 32.253906 39.046875 31.71875 39.964844 31.230469 C 40.878906 30.738281 41.820312 30.292969 42.78125 29.894531 C 43.742188 29.5 44.71875 29.148438 45.714844 28.847656 C 46.710938 28.542969 47.71875 28.292969 48.738281 28.089844 C 49.757812 27.886719 50.785156 27.734375 51.820312 27.632812 C 52.855469 27.53125 53.894531 27.480469 54.933594 27.480469 C 55.972656 27.480469 57.011719 27.53125 58.046875 27.632812 C 59.082031 27.734375 60.109375 27.886719 61.128906 28.089844 C 62.148438 28.292969 63.15625 28.542969 64.152344 28.847656 C 65.148438 29.148438 66.125 29.5 67.085938 29.894531 C 68.046875 30.292969 68.988281 30.738281 69.902344 31.230469 C 70.820312 31.71875 71.710938 32.253906 72.578125 32.832031 C 73.441406 33.410156 74.277344 34.027344 75.082031 34.6875 C 75.882812 35.347656 76.65625 36.046875 77.390625 36.78125 C 78.125 37.515625 78.824219 38.285156 79.484375 39.089844 C 80.144531 39.894531 80.761719 40.726562 81.339844 41.59375 C 81.917969 42.457031 82.453125 43.347656 82.941406 44.265625 C 83.433594 45.183594 83.875 46.121094 84.273438 47.082031 C 84.671875 48.042969 85.023438 49.023438 85.324219 50.019531 C 85.625 51.011719 85.878906 52.019531 86.082031 53.042969 C 86.285156 54.0625 86.4375 55.089844 86.539062 56.125 C 86.640625 57.160156 86.691406 58.195312 86.691406 59.238281 Z M 86.691406 59.238281 " fill-opacity="1" fill-rule="nonzero"/></g><path fill="#ffffff" d="M 79.203125 47.890625 C 78.699219 48.03125 78.933594 49.824219 78.945312 50.210938 C 78.957031 50.441406 78.710938 50.535156 78.515625 50.582031 C 78.769531 51.109375 79.027344 51.644531 79.273438 52.191406 C 79.296875 52.25 79.332031 52.308594 79.367188 52.367188 C 79.433594 51.992188 79.84375 51.914062 79.84375 51.914062 L 80.695312 51.902344 C 80.695312 51.902344 83.585938 52.285156 83.921875 51.109375 C 85.054688 47.203125 79.691406 47.761719 79.203125 47.890625 Z M 79.203125 47.890625 " fill-opacity="1" fill-rule="nonzero"/><path fill="#ffffff" d="M 29.167969 51.902344 L 29.984375 51.914062 C 30.300781 51.222656 30.625 50.558594 30.941406 49.917969 C 30.988281 49.277344 31.089844 48.007812 30.671875 47.890625 C 30.171875 47.761719 24.820312 47.203125 25.949219 51.109375 C 26.289062 52.285156 29.167969 51.902344 29.167969 51.902344 Z M 29.167969 51.902344 " fill-opacity="1" fill-rule="nonzero"/><g clip-path="url(#1d24ea8fee)"><path fill="#ffffff" d="M 81.636719 79.050781 L 81.636719 73.046875 C 81.265625 73.363281 80.8125 73.605469 80.273438 73.816406 L 80.089844 73.898438 L 74.167969 74.003906 L 74.167969 79.050781 C 74.167969 79.367188 74.421875 79.621094 74.726562 79.621094 L 81.066406 79.621094 C 81.382812 79.621094 81.636719 79.367188 81.636719 79.050781 Z M 81.636719 79.050781 " fill-opacity="1" fill-rule="nonzero"/></g><g clip-path="url(#3d4493891e)"><path fill="#ffffff" d="M 35.429688 79.050781 L 35.429688 74.015625 L 29.039062 73.898438 L 28.855469 73.816406 C 28.527344 73.6875 28.222656 73.546875 27.957031 73.375 L 27.957031 79.050781 C 27.957031 79.367188 28.210938 79.621094 28.515625 79.621094 L 34.855469 79.621094 C 35.171875 79.621094 35.429688 79.367188 35.429688 79.050781 Z M 35.429688 79.050781 " fill-opacity="1" fill-rule="nonzero"/></g><g clip-path="url(#e399541099)"><path fill="#ffffff" d="M 65.132812 35.828125 C 64.996094 35.335938 64.703125 34.898438 64.296875 34.589844 C 64.089844 34.433594 63.859375 34.308594 63.617188 34.230469 L 63.222656 34.097656 C 62.347656 33.808594 61.648438 33.140625 61.316406 32.285156 L 61.25 32.097656 C 61.136719 31.824219 60.929688 31.59375 60.667969 31.46875 C 60.503906 31.386719 60.328125 31.347656 60.15625 31.347656 L 48.972656 31.347656 C 48.796875 31.347656 48.621094 31.386719 48.460938 31.46875 C 48.199219 31.59375 47.992188 31.824219 47.878906 32.097656 L 47.808594 32.285156 C 47.480469 33.140625 46.78125 33.808594 45.90625 34.097656 L 45.511719 34.230469 C 45.269531 34.308594 45.035156 34.433594 44.832031 34.589844 C 44.425781 34.898438 44.128906 35.335938 43.992188 35.828125 L 43.105469 39.015625 C 46.25 38.851562 50.789062 38.789062 54.5625 38.789062 C 58.339844 38.789062 62.878906 38.851562 66.023438 39.015625 Z M 50.148438 37.851562 L 49.449219 37.851562 L 49.449219 34.34375 L 48.191406 34.34375 L 48.191406 33.703125 L 51.40625 33.703125 L 51.40625 34.34375 L 50.148438 34.34375 Z M 54.917969 37.851562 L 54.503906 36.90625 L 52.425781 36.90625 L 52.011719 37.851562 L 51.265625 37.851562 L 53.09375 33.703125 L 53.839844 33.703125 L 55.667969 37.851562 Z M 58.699219 37.851562 L 57.679688 36.289062 L 57.648438 36.289062 L 56.628906 37.851562 L 55.757812 37.851562 L 57.179688 35.71875 L 55.855469 33.703125 L 56.722656 33.703125 L 57.648438 35.101562 L 57.679688 35.101562 L 58.605469 33.703125 L 59.472656 33.703125 L 58.148438 35.71875 L 59.574219 37.851562 Z M 60.9375 37.851562 L 60.238281 37.851562 L 60.238281 33.703125 L 60.9375 33.703125 Z M 60.9375 37.851562 " fill-opacity="1" fill-rule="nonzero"/></g><path fill="#ffffff" d="M 52.710938 36.257812 L 54.21875 36.257812 L 53.464844 34.550781 Z M 52.710938 36.257812 " fill-opacity="1" fill-rule="nonzero"/><path fill="#ffffff" d="M 78.210938 52.667969 C 76.300781 48.460938 74.0625 44.742188 71.261719 41.828125 C 70.460938 40.988281 69.375 40.476562 68.222656 40.347656 C 63.476562 39.824219 45.652344 39.824219 40.90625 40.347656 C 39.753906 40.476562 38.667969 40.988281 37.863281 41.828125 C 35.066406 44.742188 32.828125 48.460938 30.917969 52.667969 C 30.707031 53.148438 30.402344 53.578125 30.054688 53.953125 C 27.40625 56.820312 26.535156 60.105469 27.140625 63.746094 L 27.351562 70.308594 C 27.351562 71.636719 28.164062 72.300781 29.273438 72.730469 L 37.375 72.882812 C 39.988281 72.917969 40.394531 71.589844 42.960938 71.589844 L 66.167969 71.589844 C 68.722656 71.589844 69.140625 72.917969 71.753906 72.882812 L 79.855469 72.730469 C 80.960938 72.300781 81.777344 71.636719 81.777344 70.308594 L 81.988281 63.746094 C 82.59375 60.105469 81.71875 56.820312 79.074219 53.953125 C 78.722656 53.578125 78.421875 53.148438 78.210938 52.667969 Z M 35.101562 49.371094 L 39.589844 42.667969 C 39.730469 42.46875 39.964844 42.328125 40.21875 42.292969 C 49.964844 41.234375 59.304688 41.316406 69.527344 42.304688 C 69.78125 42.328125 70.015625 42.46875 70.15625 42.667969 L 74.644531 49.371094 C 75.003906 49.90625 74.609375 50.617188 73.933594 50.617188 L 35.8125 50.617188 C 35.148438 50.617188 34.742188 49.90625 35.101562 49.371094 Z M 31.140625 57.414062 L 30.046875 61.824219 C 30.046875 61.820312 28.320312 58.585938 31.140625 57.414062 Z M 34.234375 68.613281 C 34.234375 69.175781 33.78125 69.628906 33.21875 69.628906 L 31.605469 69.628906 C 31.042969 69.628906 30.589844 69.175781 30.589844 68.613281 L 30.589844 67.332031 C 30.589844 66.769531 31.042969 66.3125 31.605469 66.3125 L 33.21875 66.3125 C 33.78125 66.3125 34.234375 66.769531 34.234375 67.332031 Z M 39.546875 63.367188 C 39.421875 63.941406 38.808594 64.265625 38.242188 64.109375 C 35.921875 63.484375 33.558594 62.851562 32.171875 62.253906 C 31.648438 62.027344 31.371094 61.457031 31.507812 60.902344 L 32.214844 58.042969 C 32.773438 56.507812 37.648438 60.183594 38.390625 60.753906 C 38.457031 60.804688 38.515625 60.859375 38.566406 60.921875 C 39.152344 61.613281 39.480469 62.421875 39.550781 63.347656 C 39.550781 63.355469 39.546875 63.359375 39.546875 63.367188 Z M 62.308594 69.136719 C 62.308594 69.410156 62.089844 69.628906 61.816406 69.628906 L 47.3125 69.628906 C 47.039062 69.628906 46.816406 69.410156 46.816406 69.136719 L 46.816406 66.808594 C 46.816406 66.535156 47.039062 66.3125 47.3125 66.3125 L 61.816406 66.3125 C 62.089844 66.3125 62.308594 66.535156 62.308594 66.808594 Z M 66.757812 59.335938 L 64.839844 63.507812 C 64.589844 64.050781 64.046875 64.402344 63.445312 64.402344 L 45.679688 64.402344 C 45.082031 64.402344 44.535156 64.050781 44.285156 63.507812 L 42.367188 59.335938 C 41.902344 58.320312 42.644531 57.160156 43.761719 57.160156 L 65.363281 57.160156 C 66.484375 57.160156 67.226562 58.320312 66.757812 59.335938 Z M 70.886719 64.109375 C 70.320312 64.265625 69.707031 63.941406 69.582031 63.367188 C 69.578125 63.359375 69.578125 63.355469 69.578125 63.347656 C 69.648438 62.421875 69.976562 61.613281 70.558594 60.921875 C 70.613281 60.859375 70.671875 60.804688 70.734375 60.753906 C 71.480469 60.183594 76.355469 56.507812 76.910156 58.042969 L 77.617188 60.902344 C 77.753906 61.453125 77.476562 62.027344 76.953125 62.253906 C 75.570312 62.851562 73.203125 63.484375 70.886719 64.109375 Z M 78.539062 68.613281 C 78.539062 69.175781 78.082031 69.628906 77.523438 69.628906 L 75.910156 69.628906 C 75.347656 69.628906 74.890625 69.175781 74.890625 68.613281 L 74.890625 67.332031 C 74.890625 66.769531 75.347656 66.3125 75.910156 66.3125 L 77.523438 66.3125 C 78.082031 66.3125 78.539062 66.769531 78.539062 67.332031 Z M 79.078125 61.820312 L 77.984375 57.414062 C 80.808594 58.585938 79.078125 61.820312 79.078125 61.820312 Z M 79.078125 61.820312 " fill-opacity="1" fill-rule="nonzero"/></svg>