<svg xmlns="http://www.w3.org/2000/svg" xmlns:xlink="http://www.w3.org/1999/xlink" width="480" zoomAndPan="magnify" viewBox="0 0 360 149.999998" height="200" preserveAspectRatio="xMidYMid meet" version="1.0"><defs><g/><clipPath id="ab795a2061"><path d="M 217 93 L 221.636719 93 L 221.636719 97 L 217 97 Z M 217 93 " clip-rule="nonzero"/></clipPath><clipPath id="72043e5b28"><path d="M 214 110 L 220 110 L 220 114.910156 L 214 114.910156 Z M 214 110 " clip-rule="nonzero"/></clipPath><clipPath id="8ca13838b2"><path d="M 182 110 L 188 110 L 188 114.910156 L 182 114.910156 Z M 182 110 " clip-rule="nonzero"/></clipPath><clipPath id="7e44e49ca8"><path d="M 192 81.910156 L 209 81.910156 L 209 88 L 192 88 Z M 192 81.910156 " clip-rule="nonzero"/></clipPath><clipPath id="2eb5945780"><path d="M 23.175781 27.480469 L 86.925781 27.480469 L 86.925781 91.230469 L 23.175781 91.230469 Z M 23.175781 27.480469 " clip-rule="nonzero"/></clipPath><clipPath id="e0e6db4ba2"><path d="M 75 71 L 84 71 L 84 77.730469 L 75 77.730469 Z M 75 71 " clip-rule="nonzero"/></clipPath><clipPath id="22693f83a2"><path d="M 29 71 L 38 71 L 38 77.730469 L 29 77.730469 Z M 29 71 " clip-rule="nonzero"/></clipPath><clipPath id="9769825e5d"><path d="M 44 29.730469 L 68 29.730469 L 68 38 L 44 38 Z M 44 29.730469 " clip-rule="nonzero"/></clipPath></defs><path fill="#38b6ff" d="M 54.9375 0 C 24.613281 0 0.0078125 24.515625 0.0078125 54.75 C 0.0078125 81.359375 42.484375 135.839844 52.722656 148.59375 C 53.859375 150 55.984375 150 57.121094 148.59375 C 67.359375 135.839844 109.835938 81.332031 109.835938 54.75 C 109.867188 24.515625 85.261719 0 54.9375 0 Z M 54.9375 98.664062 C 43.113281 98.664062 32.039062 94.082031 23.6875 85.761719 C 15.335938 77.441406 10.726562 66.363281 10.726562 54.601562 C 10.726562 42.835938 15.335938 31.761719 23.6875 23.4375 C 32.039062 15.085938 43.113281 10.476562 54.9375 10.476562 C 66.761719 10.476562 77.835938 15.058594 86.1875 23.378906 C 94.539062 31.699219 99.148438 42.777344 99.148438 54.539062 C 99.148438 66.304688 94.539062 77.378906 86.1875 85.703125 C 77.835938 94.082031 66.761719 98.664062 54.9375 98.664062 Z M 54.9375 98.664062 " fill-opacity="1" fill-rule="nonzero"/><path fill="#38b6ff" d="M 75.503906 61.753906 L 75.171875 61.753906 C 75.652344 61.003906 75.921875 60.109375 75.921875 59.148438 L 75.921875 55.675781 C 75.921875 53.191406 74.066406 51.15625 71.671875 50.859375 L 71.460938 49.871094 L 72.03125 49.871094 L 72.03125 49.152344 L 75.683594 49.152344 C 75.890625 49.152344 76.042969 48.972656 76.042969 48.792969 L 76.042969 46.21875 C 76.042969 46.007812 75.863281 45.859375 75.683594 45.859375 L 71.492188 45.859375 C 71.28125 45.859375 71.132812 46.039062 71.132812 46.21875 L 71.132812 48.285156 L 68.976562 38.882812 C 68.828125 38.167969 68.199219 37.6875 67.480469 37.6875 L 60.863281 37.6875 L 60.265625 35.113281 C 60.054688 34.214844 59.457031 33.617188 58.769531 33.617188 L 51.136719 33.617188 C 50.449219 33.617188 49.847656 34.214844 49.640625 35.113281 L 49.039062 37.6875 L 42.425781 37.6875 C 41.707031 37.6875 41.078125 38.195312 40.929688 38.882812 L 38.652344 48.851562 L 38.652344 46.21875 C 38.652344 46.007812 38.472656 45.859375 38.292969 45.859375 L 34.074219 45.859375 C 33.863281 45.859375 33.714844 46.039062 33.714844 46.21875 L 33.714844 48.792969 C 33.714844 49.003906 33.894531 49.152344 34.074219 49.152344 L 37.726562 49.152344 L 37.726562 49.871094 L 38.414062 49.871094 L 38.175781 50.886719 C 35.78125 51.1875 33.921875 53.253906 33.921875 55.707031 L 33.921875 59.179688 C 33.921875 60.136719 34.191406 61.035156 34.671875 61.785156 L 34.34375 61.785156 C 33.355469 61.785156 32.578125 62.59375 32.578125 63.550781 C 32.578125 64.539062 33.386719 65.316406 34.34375 65.316406 L 34.613281 65.316406 L 34.613281 68.609375 C 34.613281 69.714844 35.511719 70.613281 36.617188 70.613281 L 39.371094 70.613281 C 40.480469 70.613281 41.378906 69.714844 41.378906 68.609375 L 41.378906 65.316406 L 68.4375 65.316406 L 68.4375 68.609375 C 68.4375 69.714844 69.335938 70.613281 70.445312 70.613281 L 73.199219 70.613281 C 74.304688 70.613281 75.203125 69.714844 75.203125 68.609375 L 75.203125 65.316406 L 75.472656 65.316406 C 76.460938 65.316406 77.238281 64.507812 77.238281 63.550781 C 77.296875 62.53125 76.488281 61.753906 75.503906 61.753906 Z M 58.082031 35.679688 L 58.199219 35.679688 C 58.46875 35.679688 58.679688 35.890625 58.679688 36.160156 L 58.679688 36.28125 C 58.679688 36.550781 58.46875 36.757812 58.199219 36.757812 L 58.082031 36.757812 C 57.8125 36.757812 57.601562 36.550781 57.601562 36.28125 L 57.601562 36.160156 C 57.601562 35.921875 57.8125 35.679688 58.082031 35.679688 Z M 56.523438 35.113281 C 56.523438 34.84375 56.734375 34.632812 57.003906 34.632812 L 57.121094 34.632812 C 57.390625 34.632812 57.601562 34.84375 57.601562 35.113281 L 57.601562 35.234375 C 57.601562 35.5 57.390625 35.710938 57.121094 35.710938 L 57.03125 35.710938 C 56.761719 35.710938 56.554688 35.5 56.554688 35.234375 L 56.554688 35.113281 Z M 55.957031 35.679688 L 56.074219 35.679688 C 56.34375 35.679688 56.554688 35.890625 56.554688 36.160156 L 56.554688 36.28125 C 56.554688 36.550781 56.34375 36.757812 56.074219 36.757812 L 55.957031 36.757812 C 55.6875 36.757812 55.476562 36.550781 55.476562 36.28125 L 55.476562 36.160156 C 55.476562 35.921875 55.6875 35.679688 55.957031 35.679688 Z M 54.398438 35.113281 C 54.398438 34.84375 54.609375 34.632812 54.878906 34.632812 L 54.996094 34.632812 C 55.265625 34.632812 55.476562 34.84375 55.476562 35.113281 L 55.476562 35.234375 C 55.476562 35.5 55.265625 35.710938 54.996094 35.710938 L 54.878906 35.710938 C 54.609375 35.710938 54.398438 35.5 54.398438 35.234375 Z M 53.800781 35.679688 L 53.917969 35.679688 C 54.1875 35.679688 54.398438 35.890625 54.398438 36.160156 L 54.398438 36.28125 C 54.398438 36.550781 54.1875 36.757812 53.917969 36.757812 L 53.800781 36.757812 C 53.53125 36.757812 53.320312 36.550781 53.320312 36.28125 L 53.320312 36.160156 C 53.320312 35.921875 53.53125 35.679688 53.800781 35.679688 Z M 52.242188 35.113281 C 52.242188 34.84375 52.453125 34.632812 52.722656 34.632812 L 52.84375 34.632812 C 53.113281 34.632812 53.320312 34.84375 53.320312 35.113281 L 53.320312 35.234375 C 53.320312 35.5 53.113281 35.710938 52.84375 35.710938 L 52.722656 35.710938 C 52.453125 35.710938 52.242188 35.5 52.242188 35.234375 Z M 51.195312 36.160156 C 51.195312 35.890625 51.40625 35.679688 51.675781 35.679688 L 51.792969 35.679688 C 52.0625 35.679688 52.273438 35.890625 52.273438 36.160156 L 52.273438 36.28125 C 52.273438 36.550781 52.0625 36.757812 51.792969 36.757812 L 51.675781 36.757812 C 51.40625 36.757812 51.195312 36.550781 51.195312 36.28125 Z M 42.515625 40.472656 C 42.632812 40.023438 43.054688 39.691406 43.503906 39.691406 L 66.523438 39.691406 C 67 39.691406 67.390625 40.023438 67.511719 40.472656 L 69.214844 49.691406 L 40.957031 49.691406 Z M 39.941406 60.527344 C 38.234375 60.527344 36.855469 59.148438 36.855469 57.445312 C 36.855469 55.738281 38.234375 54.359375 39.941406 54.359375 C 41.648438 54.359375 43.023438 55.738281 43.023438 57.445312 C 43.023438 59.148438 41.648438 60.527344 39.941406 60.527344 Z M 63.769531 61.246094 L 46.105469 61.246094 C 45.898438 61.246094 45.746094 61.09375 45.746094 60.886719 C 45.746094 60.675781 45.898438 60.527344 46.105469 60.527344 L 63.769531 60.527344 C 63.976562 60.527344 64.128906 60.675781 64.128906 60.886719 C 64.128906 61.09375 63.976562 61.246094 63.769531 61.246094 Z M 63.769531 59.03125 L 46.105469 59.03125 C 45.898438 59.03125 45.746094 58.878906 45.746094 58.671875 C 45.746094 58.460938 45.898438 58.3125 46.105469 58.3125 L 63.769531 58.3125 C 63.976562 58.3125 64.128906 58.460938 64.128906 58.671875 C 64.128906 58.851562 63.976562 59.03125 63.769531 59.03125 Z M 63.769531 56.816406 L 46.105469 56.816406 C 45.898438 56.816406 45.746094 56.664062 45.746094 56.457031 C 45.746094 56.246094 45.898438 56.097656 46.105469 56.097656 L 63.769531 56.097656 C 63.976562 56.097656 64.128906 56.246094 64.128906 56.457031 C 64.128906 56.636719 63.976562 56.816406 63.769531 56.816406 Z M 69.933594 60.527344 C 68.226562 60.527344 66.851562 59.148438 66.851562 57.445312 C 66.851562 55.738281 68.226562 54.359375 69.933594 54.359375 C 71.640625 54.359375 73.019531 55.738281 73.019531 57.445312 C 73.046875 59.148438 71.671875 60.527344 69.933594 60.527344 Z M 69.933594 60.527344 " fill-opacity="1" fill-rule="nonzero"/><g fill="#64bfd9" fill-opacity="0.4"><g transform="translate(119.915401, 69.749998)"><g><path d="M 16.265625 -34.265625 C 20.640625 -34.265625 22.828125 -31.9375 22.828125 -27.28125 L 22.828125 -6.984375 C 22.828125 -2.328125 20.640625 0 16.265625 0 L 2.640625 0 L 2.640625 -34.265625 Z M 15.40625 -6.140625 L 15.40625 -28.171875 C 15.40625 -28.460938 15.304688 -28.710938 15.109375 -28.921875 C 14.921875 -29.128906 14.6875 -29.234375 14.40625 -29.234375 L 10.0625 -29.234375 L 10.0625 -5.078125 L 14.40625 -5.078125 C 14.6875 -5.078125 14.921875 -5.179688 15.109375 -5.390625 C 15.304688 -5.609375 15.40625 -5.859375 15.40625 -6.140625 Z M 15.40625 -6.140625 "/></g></g></g><g fill="#64bfd9" fill-opacity="0.4"><g transform="translate(145.599546, 69.749998)"><g><path d="M 13.40625 -26.375 L 14.78125 -26.375 L 14.78125 -19.5 L 11.28125 -19.5 C 10.082031 -19.5 9.484375 -18.878906 9.484375 -17.640625 L 9.484375 0 L 2.390625 0 L 2.390625 -25.84375 L 8.84375 -25.84375 L 8.84375 -23.359375 C 9.863281 -25.367188 11.382812 -26.375 13.40625 -26.375 Z M 13.40625 -26.375 "/></g></g></g><g fill="#64bfd9" fill-opacity="0.4"><g transform="translate(161.1689, 69.749998)"><g><path d="M 21.5 -19.390625 L 21.5 -6.46875 C 21.5 -1.800781 19.3125 0.53125 14.9375 0.53125 L 8.953125 0.53125 C 4.578125 0.53125 2.390625 -1.800781 2.390625 -6.46875 L 2.390625 -19.390625 C 2.390625 -24.046875 4.578125 -26.375 8.953125 -26.375 L 14.9375 -26.375 C 19.3125 -26.375 21.5 -24.046875 21.5 -19.390625 Z M 14.40625 -4.984375 L 14.40625 -20.921875 C 14.40625 -21.203125 14.304688 -21.445312 14.109375 -21.65625 C 13.921875 -21.875 13.6875 -21.984375 13.40625 -21.984375 L 10.484375 -21.984375 C 10.203125 -21.984375 9.960938 -21.875 9.765625 -21.65625 C 9.578125 -21.445312 9.484375 -21.203125 9.484375 -20.921875 L 9.484375 -4.984375 C 9.484375 -4.703125 9.578125 -4.453125 9.765625 -4.234375 C 9.960938 -4.023438 10.203125 -3.921875 10.484375 -3.921875 L 13.40625 -3.921875 C 13.6875 -3.921875 13.921875 -4.023438 14.109375 -4.234375 C 14.304688 -4.453125 14.40625 -4.703125 14.40625 -4.984375 Z M 14.40625 -4.984375 "/></g></g></g><g fill="#64bfd9" fill-opacity="0.4"><g transform="translate(185.105465, 69.749998)"><g><path d="M 14.9375 0.53125 L 13.828125 0.53125 C 12.023438 0.53125 10.578125 0.109375 9.484375 -0.734375 L 9.484375 8.421875 L 2.390625 8.421875 L 2.390625 -25.84375 L 8.375 -25.84375 L 8.375 -23.9375 C 9.46875 -25.5625 11.285156 -26.375 13.828125 -26.375 L 14.9375 -26.375 C 19.3125 -26.375 21.5 -24.046875 21.5 -19.390625 L 21.5 -6.46875 C 21.5 -1.800781 19.3125 0.53125 14.9375 0.53125 Z M 9.484375 -20.234375 L 9.484375 -5.609375 C 9.484375 -5.328125 9.578125 -5.082031 9.765625 -4.875 C 9.960938 -4.664062 10.203125 -4.5625 10.484375 -4.5625 L 13.40625 -4.5625 C 13.6875 -4.5625 13.921875 -4.664062 14.109375 -4.875 C 14.304688 -5.082031 14.40625 -5.328125 14.40625 -5.609375 L 14.40625 -20.234375 C 14.40625 -20.515625 14.304688 -20.757812 14.109375 -20.96875 C 13.921875 -21.1875 13.6875 -21.296875 13.40625 -21.296875 L 10.484375 -21.296875 C 10.203125 -21.296875 9.960938 -21.1875 9.765625 -20.96875 C 9.578125 -20.757812 9.484375 -20.515625 9.484375 -20.234375 Z M 9.484375 -20.234375 "/></g></g></g><g fill="#64bfd9" fill-opacity="0.4"><g transform="translate(209.042029, 69.749998)"><g/></g></g><g fill="#64bfd9" fill-opacity="0.4"><g transform="translate(219.739348, 69.749998)"><g><path d="M 22.515625 -34.265625 L 15.15625 -12.5 L 15.15625 0 L 7.734375 0 L 7.734375 -12.5 L 0.375 -34.265625 L 7.359375 -34.265625 L 11.4375 -19.96875 L 15.515625 -34.265625 Z M 22.515625 -34.265625 "/></g></g></g><g fill="#64bfd9" fill-opacity="0.4"><g transform="translate(242.775639, 69.749998)"><g><path d="M 21.5 -19.390625 L 21.5 -6.46875 C 21.5 -1.800781 19.3125 0.53125 14.9375 0.53125 L 8.953125 0.53125 C 4.578125 0.53125 2.390625 -1.800781 2.390625 -6.46875 L 2.390625 -19.390625 C 2.390625 -24.046875 4.578125 -26.375 8.953125 -26.375 L 14.9375 -26.375 C 19.3125 -26.375 21.5 -24.046875 21.5 -19.390625 Z M 14.40625 -4.984375 L 14.40625 -20.921875 C 14.40625 -21.203125 14.304688 -21.445312 14.109375 -21.65625 C 13.921875 -21.875 13.6875 -21.984375 13.40625 -21.984375 L 10.484375 -21.984375 C 10.203125 -21.984375 9.960938 -21.875 9.765625 -21.65625 C 9.578125 -21.445312 9.484375 -21.203125 9.484375 -20.921875 L 9.484375 -4.984375 C 9.484375 -4.703125 9.578125 -4.453125 9.765625 -4.234375 C 9.960938 -4.023438 10.203125 -3.921875 10.484375 -3.921875 L 13.40625 -3.921875 C 13.6875 -3.921875 13.921875 -4.023438 14.109375 -4.234375 C 14.304688 -4.453125 14.40625 -4.703125 14.40625 -4.984375 Z M 14.40625 -4.984375 "/></g></g></g><g fill="#64bfd9" fill-opacity="0.4"><g transform="translate(266.712203, 69.749998)"><g><path d="M 14.40625 -25.84375 L 21.5 -25.84375 L 21.5 0 L 15.046875 0 L 15.046875 -1.328125 C 13.953125 -0.0859375 12.289062 0.53125 10.0625 0.53125 L 8.953125 0.53125 C 4.578125 0.53125 2.390625 -1.800781 2.390625 -6.46875 L 2.390625 -25.84375 L 9.484375 -25.84375 L 9.484375 -5.609375 C 9.484375 -5.328125 9.578125 -5.082031 9.765625 -4.875 C 9.960938 -4.664062 10.203125 -4.5625 10.484375 -4.5625 L 13.40625 -4.5625 C 13.6875 -4.5625 13.921875 -4.664062 14.109375 -4.875 C 14.304688 -5.082031 14.40625 -5.328125 14.40625 -5.609375 Z M 14.40625 -25.84375 "/></g></g></g><g fill="#000000" fill-opacity="1"><g transform="translate(119.915401, 69.749998)"><g><path d="M 16.265625 -34.265625 C 20.640625 -34.265625 22.828125 -31.9375 22.828125 -27.28125 L 22.828125 -6.984375 C 22.828125 -2.328125 20.640625 0 16.265625 0 L 2.640625 0 L 2.640625 -34.265625 Z M 15.40625 -6.140625 L 15.40625 -28.171875 C 15.40625 -28.460938 15.304688 -28.710938 15.109375 -28.921875 C 14.921875 -29.128906 14.6875 -29.234375 14.40625 -29.234375 L 10.0625 -29.234375 L 10.0625 -5.078125 L 14.40625 -5.078125 C 14.6875 -5.078125 14.921875 -5.179688 15.109375 -5.390625 C 15.304688 -5.609375 15.40625 -5.859375 15.40625 -6.140625 Z M 15.40625 -6.140625 "/></g></g></g><g fill="#000000" fill-opacity="1"><g transform="translate(145.599546, 69.749998)"><g><path d="M 13.40625 -26.375 L 14.78125 -26.375 L 14.78125 -19.5 L 11.28125 -19.5 C 10.082031 -19.5 9.484375 -18.878906 9.484375 -17.640625 L 9.484375 0 L 2.390625 0 L 2.390625 -25.84375 L 8.84375 -25.84375 L 8.84375 -23.359375 C 9.863281 -25.367188 11.382812 -26.375 13.40625 -26.375 Z M 13.40625 -26.375 "/></g></g></g><g fill="#000000" fill-opacity="1"><g transform="translate(161.1689, 69.749998)"><g><path d="M 21.5 -19.390625 L 21.5 -6.46875 C 21.5 -1.800781 19.3125 0.53125 14.9375 0.53125 L 8.953125 0.53125 C 4.578125 0.53125 2.390625 -1.800781 2.390625 -6.46875 L 2.390625 -19.390625 C 2.390625 -24.046875 4.578125 -26.375 8.953125 -26.375 L 14.9375 -26.375 C 19.3125 -26.375 21.5 -24.046875 21.5 -19.390625 Z M 14.40625 -4.984375 L 14.40625 -20.921875 C 14.40625 -21.203125 14.304688 -21.445312 14.109375 -21.65625 C 13.921875 -21.875 13.6875 -21.984375 13.40625 -21.984375 L 10.484375 -21.984375 C 10.203125 -21.984375 9.960938 -21.875 9.765625 -21.65625 C 9.578125 -21.445312 9.484375 -21.203125 9.484375 -20.921875 L 9.484375 -4.984375 C 9.484375 -4.703125 9.578125 -4.453125 9.765625 -4.234375 C 9.960938 -4.023438 10.203125 -3.921875 10.484375 -3.921875 L 13.40625 -3.921875 C 13.6875 -3.921875 13.921875 -4.023438 14.109375 -4.234375 C 14.304688 -4.453125 14.40625 -4.703125 14.40625 -4.984375 Z M 14.40625 -4.984375 "/></g></g></g><g fill="#000000" fill-opacity="1"><g transform="translate(185.105465, 69.749998)"><g><path d="M 14.9375 0.53125 L 13.828125 0.53125 C 12.023438 0.53125 10.578125 0.109375 9.484375 -0.734375 L 9.484375 8.421875 L 2.390625 8.421875 L 2.390625 -25.84375 L 8.375 -25.84375 L 8.375 -23.9375 C 9.46875 -25.5625 11.285156 -26.375 13.828125 -26.375 L 14.9375 -26.375 C 19.3125 -26.375 21.5 -24.046875 21.5 -19.390625 L 21.5 -6.46875 C 21.5 -1.800781 19.3125 0.53125 14.9375 0.53125 Z M 9.484375 -20.234375 L 9.484375 -5.609375 C 9.484375 -5.328125 9.578125 -5.082031 9.765625 -4.875 C 9.960938 -4.664062 10.203125 -4.5625 10.484375 -4.5625 L 13.40625 -4.5625 C 13.6875 -4.5625 13.921875 -4.664062 14.109375 -4.875 C 14.304688 -5.082031 14.40625 -5.328125 14.40625 -5.609375 L 14.40625 -20.234375 C 14.40625 -20.515625 14.304688 -20.757812 14.109375 -20.96875 C 13.921875 -21.1875 13.6875 -21.296875 13.40625 -21.296875 L 10.484375 -21.296875 C 10.203125 -21.296875 9.960938 -21.1875 9.765625 -20.96875 C 9.578125 -20.757812 9.484375 -20.515625 9.484375 -20.234375 Z M 9.484375 -20.234375 "/></g></g></g><g fill="#000000" fill-opacity="1"><g transform="translate(209.042029, 69.749998)"><g/></g></g><g fill="#000000" fill-opacity="1"><g transform="translate(219.739348, 69.749998)"><g><path d="M 22.515625 -34.265625 L 15.15625 -12.5 L 15.15625 0 L 7.734375 0 L 7.734375 -12.5 L 0.375 -34.265625 L 7.359375 -34.265625 L 11.4375 -19.96875 L 15.515625 -34.265625 Z M 22.515625 -34.265625 "/></g></g></g><g fill="#000000" fill-opacity="1"><g transform="translate(242.775639, 69.749998)"><g><path d="M 21.5 -19.390625 L 21.5 -6.46875 C 21.5 -1.800781 19.3125 0.53125 14.9375 0.53125 L 8.953125 0.53125 C 4.578125 0.53125 2.390625 -1.800781 2.390625 -6.46875 L 2.390625 -19.390625 C 2.390625 -24.046875 4.578125 -26.375 8.953125 -26.375 L 14.9375 -26.375 C 19.3125 -26.375 21.5 -24.046875 21.5 -19.390625 Z M 14.40625 -4.984375 L 14.40625 -20.921875 C 14.40625 -21.203125 14.304688 -21.445312 14.109375 -21.65625 C 13.921875 -21.875 13.6875 -21.984375 13.40625 -21.984375 L 10.484375 -21.984375 C 10.203125 -21.984375 9.960938 -21.875 9.765625 -21.65625 C 9.578125 -21.445312 9.484375 -21.203125 9.484375 -20.921875 L 9.484375 -4.984375 C 9.484375 -4.703125 9.578125 -4.453125 9.765625 -4.234375 C 9.960938 -4.023438 10.203125 -3.921875 10.484375 -3.921875 L 13.40625 -3.921875 C 13.6875 -3.921875 13.921875 -4.023438 14.109375 -4.234375 C 14.304688 -4.453125 14.40625 -4.703125 14.40625 -4.984375 Z M 14.40625 -4.984375 "/></g></g></g><g fill="#000000" fill-opacity="1"><g transform="translate(266.712203, 69.749998)"><g><path d="M 14.40625 -25.84375 L 21.5 -25.84375 L 21.5 0 L 15.046875 0 L 15.046875 -1.328125 C 13.953125 -0.0859375 12.289062 0.53125 10.0625 0.53125 L 8.953125 0.53125 C 4.578125 0.53125 2.390625 -1.800781 2.390625 -6.46875 L 2.390625 -25.84375 L 9.484375 -25.84375 L 9.484375 -5.609375 C 9.484375 -5.328125 9.578125 -5.082031 9.765625 -4.875 C 9.960938 -4.664062 10.203125 -4.5625 10.484375 -4.5625 L 13.40625 -4.5625 C 13.6875 -4.5625 13.921875 -4.664062 14.109375 -4.875 C 14.304688 -5.082031 14.40625 -5.328125 14.40625 -5.609375 Z M 14.40625 -25.84375 "/></g></g></g><g fill="#64bfd9" fill-opacity="0.4"><g transform="translate(290.657579, 69.749998)"><g/></g></g><g fill="#000000" fill-opacity="1"><g transform="translate(290.657579, 69.749998)"><g/></g></g><g fill="#64bfd9" fill-opacity="0.4"><g transform="translate(161.165399, 115.499995)"><g><path d="M 0.6875 -27.96875 L 0.6875 -34.265625 L 19.234375 -34.265625 L 19.234375 -27.96875 L 13.671875 -27.96875 L 13.671875 0 L 6.25 0 L 6.25 -27.96875 Z M 0.6875 -27.96875 "/></g></g></g><g fill="#000000" fill-opacity="1"><g transform="translate(161.165399, 115.499995)"><g><path d="M 0.6875 -27.96875 L 0.6875 -34.265625 L 19.234375 -34.265625 L 19.234375 -27.96875 L 13.671875 -27.96875 L 13.671875 0 L 6.25 0 L 6.25 -27.96875 Z M 0.6875 -27.96875 "/></g></g></g><g fill="#64bfd9" fill-opacity="0.4"><g transform="translate(181.134148, 115.499995)"><g/></g></g><g fill="#64bfd9" fill-opacity="0.4"><g transform="translate(191.831466, 115.499995)"><g/></g></g><g fill="#64bfd9" fill-opacity="0.4"><g transform="translate(202.528784, 115.499995)"><g/></g></g><g fill="#64bfd9" fill-opacity="0.4"><g transform="translate(213.226103, 115.499995)"><g/></g></g><g fill="#000000" fill-opacity="1"><g transform="translate(181.134148, 115.499995)"><g/></g></g><g fill="#000000" fill-opacity="1"><g transform="translate(191.831466, 115.499995)"><g/></g></g><g fill="#000000" fill-opacity="1"><g transform="translate(202.528784, 115.499995)"><g/></g></g><g fill="#000000" fill-opacity="1"><g transform="translate(213.226103, 115.499995)"><g/></g></g><g fill="#64bfd9" fill-opacity="0.4"><g transform="translate(223.93102, 115.499995)"><g><path d="M 11.5 -8.46875 L 7.578125 0 L 0.21875 0 L 7.421875 -13.765625 L 0.6875 -25.84375 L 8.421875 -25.84375 L 11.5 -18.109375 L 14.5625 -25.84375 L 22.296875 -25.84375 L 15.578125 -13.765625 L 22.78125 0 L 15.40625 0 Z M 11.5 -8.46875 "/></g></g></g><g fill="#64bfd9" fill-opacity="0.4"><g transform="translate(247.073226, 115.499995)"><g><path d="M 9.609375 -29.078125 C 8.847656 -28.335938 7.9375 -27.96875 6.875 -27.96875 C 5.820312 -27.96875 4.90625 -28.347656 4.125 -29.109375 C 3.351562 -29.867188 2.96875 -30.785156 2.96875 -31.859375 C 2.96875 -32.929688 3.351562 -33.847656 4.125 -34.609375 C 4.90625 -35.367188 5.820312 -35.75 6.875 -35.75 C 7.9375 -35.75 8.847656 -35.367188 9.609375 -34.609375 C 10.367188 -33.847656 10.75 -32.921875 10.75 -31.828125 C 10.75 -30.734375 10.367188 -29.816406 9.609375 -29.078125 Z M 3.34375 0 L 3.34375 -25.84375 L 10.4375 -25.84375 L 10.4375 0 Z M 3.34375 0 "/></g></g></g><g fill="#000000" fill-opacity="1"><g transform="translate(223.93102, 115.499995)"><g><path d="M 11.5 -8.46875 L 7.578125 0 L 0.21875 0 L 7.421875 -13.765625 L 0.6875 -25.84375 L 8.421875 -25.84375 L 11.5 -18.109375 L 14.5625 -25.84375 L 22.296875 -25.84375 L 15.578125 -13.765625 L 22.78125 0 L 15.40625 0 Z M 11.5 -8.46875 "/></g></g></g><g fill="#000000" fill-opacity="1"><g transform="translate(247.073226, 115.499995)"><g><path d="M 9.609375 -29.078125 C 8.847656 -28.335938 7.9375 -27.96875 6.875 -27.96875 C 5.820312 -27.96875 4.90625 -28.347656 4.125 -29.109375 C 3.351562 -29.867188 2.96875 -30.785156 2.96875 -31.859375 C 2.96875 -32.929688 3.351562 -33.847656 4.125 -34.609375 C 4.90625 -35.367188 5.820312 -35.75 6.875 -35.75 C 7.9375 -35.75 8.847656 -35.367188 9.609375 -34.609375 C 10.367188 -33.847656 10.75 -32.921875 10.75 -31.828125 C 10.75 -30.734375 10.367188 -29.816406 9.609375 -29.078125 Z M 3.34375 0 L 3.34375 -25.84375 L 10.4375 -25.84375 L 10.4375 0 Z M 3.34375 0 "/></g></g></g><g clip-path="url(#ab795a2061)"><path fill="#1a9df1" d="M 217.75 93.277344 C 217.40625 93.371094 217.566406 94.601562 217.574219 94.867188 C 217.582031 95.027344 217.414062 95.089844 217.277344 95.121094 C 217.453125 95.484375 217.628906 95.851562 217.796875 96.226562 C 217.8125 96.265625 217.835938 96.304688 217.863281 96.347656 C 217.910156 96.089844 218.1875 96.035156 218.1875 96.035156 L 218.773438 96.027344 C 218.773438 96.027344 220.757812 96.289062 220.988281 95.484375 C 221.765625 92.804688 218.085938 93.1875 217.75 93.277344 Z M 217.75 93.277344 " fill-opacity="1" fill-rule="nonzero"/></g><path fill="#1a9df1" d="M 183.425781 96.027344 L 183.988281 96.035156 C 184.203125 95.5625 184.425781 95.105469 184.640625 94.667969 C 184.675781 94.226562 184.746094 93.355469 184.457031 93.277344 C 184.113281 93.1875 180.445312 92.804688 181.21875 95.484375 C 181.453125 96.289062 183.425781 96.027344 183.425781 96.027344 Z M 183.425781 96.027344 " fill-opacity="1" fill-rule="nonzero"/><g clip-path="url(#72043e5b28)"><path fill="#1a9df1" d="M 219.421875 114.652344 L 219.421875 110.53125 C 219.164062 110.75 218.851562 110.917969 218.484375 111.0625 L 218.355469 111.117188 L 214.292969 111.1875 L 214.292969 114.652344 C 214.292969 114.867188 214.472656 115.042969 214.679688 115.042969 L 219.027344 115.042969 C 219.246094 115.042969 219.421875 114.867188 219.421875 114.652344 Z M 219.421875 114.652344 " fill-opacity="1" fill-rule="nonzero"/></g><g clip-path="url(#8ca13838b2)"><path fill="#1a9df1" d="M 187.722656 114.652344 L 187.722656 111.195312 L 183.339844 111.117188 L 183.210938 111.0625 C 182.988281 110.972656 182.777344 110.875 182.59375 110.757812 L 182.59375 114.652344 C 182.59375 114.867188 182.769531 115.042969 182.980469 115.042969 L 187.328125 115.042969 C 187.546875 115.042969 187.722656 114.867188 187.722656 114.652344 Z M 187.722656 114.652344 " fill-opacity="1" fill-rule="nonzero"/></g><g clip-path="url(#7e44e49ca8)"><path fill="#1a9df1" d="M 208.097656 85 C 208.003906 84.664062 207.804688 84.363281 207.523438 84.152344 C 207.382812 84.046875 207.226562 83.960938 207.058594 83.902344 L 206.789062 83.8125 C 206.1875 83.617188 205.707031 83.160156 205.480469 82.570312 L 205.433594 82.441406 C 205.355469 82.253906 205.214844 82.097656 205.035156 82.011719 C 204.921875 81.953125 204.804688 81.929688 204.683594 81.929688 L 197.011719 81.929688 C 196.890625 81.929688 196.773438 81.953125 196.660156 82.011719 C 196.480469 82.097656 196.339844 82.253906 196.261719 82.441406 L 196.214844 82.570312 C 195.988281 83.160156 195.507812 83.617188 194.90625 83.8125 L 194.636719 83.902344 C 194.472656 83.960938 194.3125 84.046875 194.171875 84.152344 C 193.890625 84.363281 193.691406 84.664062 193.597656 85 L 192.988281 87.1875 C 195.144531 87.074219 198.257812 87.03125 200.847656 87.03125 C 203.4375 87.03125 206.550781 87.074219 208.707031 87.1875 Z M 197.820312 86.386719 L 197.339844 86.386719 L 197.339844 83.980469 L 196.476562 83.980469 L 196.476562 83.542969 L 198.683594 83.542969 L 198.683594 83.980469 L 197.820312 83.980469 Z M 201.09375 86.386719 L 200.808594 85.742188 L 199.382812 85.742188 L 199.097656 86.386719 L 198.585938 86.386719 L 199.839844 83.542969 L 200.351562 83.542969 L 201.605469 86.386719 Z M 203.683594 86.386719 L 202.984375 85.316406 L 202.964844 85.316406 L 202.265625 86.386719 L 201.667969 86.386719 L 202.644531 84.925781 L 201.734375 83.542969 L 202.328125 83.542969 L 202.964844 84.503906 L 202.984375 84.503906 L 203.621094 83.542969 L 204.214844 83.542969 L 203.308594 84.925781 L 204.285156 86.386719 Z M 205.21875 86.386719 L 204.738281 86.386719 L 204.738281 83.542969 L 205.21875 83.542969 Z M 205.21875 86.386719 " fill-opacity="1" fill-rule="nonzero"/></g><path fill="#1a9df1" d="M 199.578125 85.296875 L 200.613281 85.296875 L 200.09375 84.125 Z M 199.578125 85.296875 " fill-opacity="1" fill-rule="nonzero"/><path fill="#1a9df1" d="M 217.070312 96.554688 C 215.757812 93.667969 214.222656 91.117188 212.304688 89.117188 C 211.75 88.542969 211.007812 88.191406 210.214844 88.101562 C 206.960938 87.742188 194.734375 87.742188 191.480469 88.101562 C 190.6875 88.191406 189.945312 88.542969 189.394531 89.117188 C 187.472656 91.117188 185.9375 93.667969 184.625 96.554688 C 184.484375 96.882812 184.273438 97.179688 184.035156 97.433594 C 182.21875 99.402344 181.621094 101.65625 182.035156 104.152344 L 182.179688 108.652344 C 182.179688 109.566406 182.738281 110.019531 183.5 110.316406 L 189.058594 110.421875 C 190.847656 110.445312 191.128906 109.53125 192.886719 109.53125 L 208.808594 109.53125 C 210.558594 109.53125 210.847656 110.445312 212.640625 110.421875 L 218.195312 110.316406 C 218.957031 110.019531 219.515625 109.566406 219.515625 108.652344 L 219.660156 104.152344 C 220.078125 101.65625 219.476562 99.402344 217.660156 97.433594 C 217.421875 97.179688 217.214844 96.882812 217.070312 96.554688 Z M 187.496094 94.292969 L 190.578125 89.691406 C 190.671875 89.558594 190.832031 89.460938 191.007812 89.4375 C 197.695312 88.710938 204.097656 88.765625 211.113281 89.445312 C 211.289062 89.460938 211.449219 89.558594 211.542969 89.691406 L 214.621094 94.292969 C 214.871094 94.660156 214.597656 95.148438 214.136719 95.148438 L 187.984375 95.148438 C 187.53125 95.148438 187.25 94.660156 187.496094 94.292969 Z M 184.78125 99.808594 L 184.03125 102.832031 C 184.03125 102.832031 182.84375 100.613281 184.78125 99.808594 Z M 186.902344 107.492188 C 186.902344 107.875 186.589844 108.1875 186.207031 108.1875 L 185.097656 108.1875 C 184.714844 108.1875 184.402344 107.875 184.402344 107.492188 L 184.402344 106.613281 C 184.402344 106.226562 184.714844 105.914062 185.097656 105.914062 L 186.207031 105.914062 C 186.589844 105.914062 186.902344 106.226562 186.902344 106.613281 Z M 190.546875 103.890625 C 190.460938 104.285156 190.039062 104.507812 189.652344 104.402344 C 188.058594 103.972656 186.4375 103.539062 185.488281 103.128906 C 185.128906 102.972656 184.941406 102.582031 185.035156 102.203125 L 185.519531 100.242188 C 185.898438 99.1875 189.242188 101.707031 189.753906 102.101562 C 189.800781 102.136719 189.839844 102.171875 189.875 102.214844 C 190.277344 102.6875 190.5 103.246094 190.550781 103.878906 C 190.546875 103.882812 190.546875 103.886719 190.546875 103.890625 Z M 206.160156 107.847656 C 206.160156 108.035156 206.011719 108.1875 205.824219 108.1875 L 195.875 108.1875 C 195.6875 108.1875 195.535156 108.035156 195.535156 107.847656 L 195.535156 106.253906 C 195.535156 106.066406 195.6875 105.914062 195.875 105.914062 L 205.824219 105.914062 C 206.011719 105.914062 206.160156 106.066406 206.160156 106.253906 Z M 209.214844 101.128906 L 207.898438 103.988281 C 207.726562 104.363281 207.351562 104.601562 206.941406 104.601562 L 194.753906 104.601562 C 194.34375 104.601562 193.96875 104.363281 193.796875 103.988281 L 192.480469 101.128906 C 192.160156 100.429688 192.671875 99.636719 193.4375 99.636719 L 208.257812 99.636719 C 209.023438 99.636719 209.535156 100.429688 209.214844 101.128906 Z M 212.042969 104.402344 C 211.65625 104.507812 211.234375 104.285156 211.148438 103.890625 C 211.148438 103.886719 211.148438 103.882812 211.144531 103.878906 C 211.195312 103.246094 211.417969 102.6875 211.820312 102.214844 C 211.855469 102.171875 211.898438 102.136719 211.941406 102.101562 C 212.453125 101.707031 215.796875 99.1875 216.179688 100.242188 L 216.664062 102.203125 C 216.757812 102.582031 216.566406 102.972656 216.207031 103.128906 C 215.257812 103.539062 213.636719 103.972656 212.042969 104.402344 Z M 217.292969 107.492188 C 217.292969 107.875 216.980469 108.1875 216.597656 108.1875 L 215.492188 108.1875 C 215.105469 108.1875 214.792969 107.875 214.792969 107.492188 L 214.792969 106.613281 C 214.792969 106.226562 215.105469 105.914062 215.492188 105.914062 L 216.597656 105.914062 C 216.980469 105.914062 217.292969 106.226562 217.292969 106.613281 Z M 217.664062 102.832031 L 216.914062 99.808594 C 218.851562 100.613281 217.664062 102.832031 217.664062 102.832031 Z M 217.664062 102.832031 " fill-opacity="1" fill-rule="nonzero"/><g clip-path="url(#2eb5945780)"><path fill="#ffffff" d="M 86.925781 59.355469 C 86.925781 60.398438 86.875 61.4375 86.773438 62.476562 C 86.671875 63.515625 86.515625 64.546875 86.3125 65.574219 C 86.109375 66.597656 85.855469 67.609375 85.554688 68.605469 C 85.25 69.605469 84.898438 70.585938 84.5 71.550781 C 84.101562 72.515625 83.652344 73.460938 83.164062 74.378906 C 82.671875 75.300781 82.132812 76.195312 81.554688 77.0625 C 80.972656 77.929688 80.351562 78.769531 79.691406 79.574219 C 79.027344 80.382812 78.328125 81.15625 77.589844 81.894531 C 76.851562 82.632812 76.078125 83.332031 75.273438 83.992188 C 74.464844 84.65625 73.628906 85.277344 72.757812 85.855469 C 71.890625 86.4375 70.996094 86.972656 70.078125 87.464844 C 69.15625 87.957031 68.214844 88.402344 67.25 88.800781 C 66.285156 89.203125 65.300781 89.554688 64.304688 89.855469 C 63.304688 90.160156 62.292969 90.414062 61.269531 90.617188 C 60.246094 90.820312 59.214844 90.972656 58.175781 91.074219 C 57.136719 91.179688 56.09375 91.230469 55.050781 91.230469 C 54.007812 91.230469 52.964844 91.179688 51.925781 91.074219 C 50.886719 90.972656 49.855469 90.820312 48.832031 90.617188 C 47.808594 90.414062 46.796875 90.160156 45.796875 89.855469 C 44.800781 89.554688 43.816406 89.203125 42.851562 88.800781 C 41.886719 88.402344 40.945312 87.957031 40.023438 87.464844 C 39.105469 86.972656 38.210938 86.4375 37.34375 85.855469 C 36.472656 85.277344 35.636719 84.65625 34.828125 83.992188 C 34.023438 83.332031 33.25 82.632812 32.511719 81.894531 C 31.773438 81.15625 31.074219 80.382812 30.410156 79.574219 C 29.75 78.769531 29.128906 77.929688 28.546875 77.0625 C 27.96875 76.195312 27.433594 75.300781 26.941406 74.378906 C 26.449219 73.460938 26 72.515625 25.601562 71.550781 C 25.203125 70.585938 24.851562 69.605469 24.546875 68.605469 C 24.246094 67.609375 23.992188 66.597656 23.789062 65.574219 C 23.585938 64.546875 23.433594 63.515625 23.328125 62.476562 C 23.226562 61.4375 23.175781 60.398438 23.175781 59.355469 C 23.175781 58.308594 23.226562 57.269531 23.328125 56.230469 C 23.433594 55.191406 23.585938 54.160156 23.789062 53.136719 C 23.992188 52.113281 24.246094 51.101562 24.546875 50.101562 C 24.851562 49.101562 25.203125 48.121094 25.601562 47.15625 C 26 46.191406 26.449219 45.25 26.941406 44.328125 C 27.433594 43.40625 27.96875 42.511719 28.546875 41.644531 C 29.128906 40.777344 29.75 39.941406 30.410156 39.132812 C 31.074219 38.324219 31.773438 37.554688 32.511719 36.816406 C 33.25 36.078125 34.023438 35.375 34.828125 34.714844 C 35.636719 34.050781 36.472656 33.429688 37.34375 32.851562 C 38.210938 32.269531 39.105469 31.734375 40.023438 31.242188 C 40.945312 30.75 41.886719 30.304688 42.851562 29.90625 C 43.816406 29.503906 44.800781 29.15625 45.796875 28.851562 C 46.796875 28.546875 47.808594 28.296875 48.832031 28.089844 C 49.855469 27.886719 50.886719 27.734375 51.925781 27.632812 C 52.964844 27.53125 54.007812 27.480469 55.050781 27.480469 C 56.09375 27.480469 57.136719 27.53125 58.175781 27.632812 C 59.214844 27.734375 60.246094 27.886719 61.269531 28.089844 C 62.292969 28.296875 63.304688 28.546875 64.304688 28.851562 C 65.300781 29.15625 66.285156 29.503906 67.25 29.90625 C 68.214844 30.304688 69.15625 30.75 70.078125 31.242188 C 70.996094 31.734375 71.890625 32.269531 72.757812 32.851562 C 73.628906 33.429688 74.464844 34.050781 75.273438 34.714844 C 76.078125 35.375 76.851562 36.078125 77.589844 36.816406 C 78.328125 37.554688 79.027344 38.324219 79.691406 39.132812 C 80.351562 39.941406 80.972656 40.777344 81.554688 41.644531 C 82.132812 42.511719 82.671875 43.40625 83.164062 44.328125 C 83.652344 45.25 84.101562 46.191406 84.5 47.15625 C 84.898438 48.121094 85.25 49.101562 85.554688 50.101562 C 85.855469 51.101562 86.109375 52.113281 86.3125 53.136719 C 86.515625 54.160156 86.671875 55.191406 86.773438 56.230469 C 86.875 57.269531 86.925781 58.308594 86.925781 59.355469 Z M 86.925781 59.355469 " fill-opacity="1" fill-rule="nonzero"/></g><path fill="#000000" d="M 81.046875 46.183594 C 80.542969 46.324219 80.777344 48.105469 80.789062 48.488281 C 80.800781 48.722656 80.554688 48.8125 80.355469 48.859375 C 80.613281 49.382812 80.871094 49.914062 81.117188 50.457031 C 81.140625 50.515625 81.175781 50.574219 81.210938 50.632812 C 81.28125 50.261719 81.691406 50.179688 81.691406 50.179688 L 82.546875 50.167969 C 82.546875 50.167969 85.453125 50.550781 85.796875 49.382812 C 86.933594 45.503906 81.539062 46.058594 81.046875 46.183594 Z M 81.046875 46.183594 " fill-opacity="1" fill-rule="nonzero"/><path fill="#000000" d="M 30.742188 50.167969 L 31.5625 50.179688 C 31.878906 49.496094 32.207031 48.835938 32.523438 48.199219 C 32.570312 47.5625 32.675781 46.300781 32.253906 46.183594 C 31.75 46.058594 26.371094 45.503906 27.507812 49.382812 C 27.847656 50.550781 30.742188 50.167969 30.742188 50.167969 Z M 30.742188 50.167969 " fill-opacity="1" fill-rule="nonzero"/><g clip-path="url(#e0e6db4ba2)"><path fill="#000000" d="M 83.496094 77.132812 L 83.496094 71.171875 C 83.121094 71.484375 82.664062 71.726562 82.125 71.9375 L 81.9375 72.015625 L 75.984375 72.121094 L 75.984375 77.132812 C 75.984375 77.445312 76.242188 77.703125 76.546875 77.703125 L 82.921875 77.703125 C 83.238281 77.703125 83.496094 77.445312 83.496094 77.132812 Z M 83.496094 77.132812 " fill-opacity="1" fill-rule="nonzero"/></g><g clip-path="url(#22693f83a2)"><path fill="#000000" d="M 37.035156 77.132812 L 37.035156 72.132812 L 30.613281 72.015625 L 30.425781 71.933594 C 30.097656 71.808594 29.792969 71.667969 29.523438 71.496094 L 29.523438 77.132812 C 29.523438 77.445312 29.78125 77.703125 30.085938 77.703125 L 36.460938 77.703125 C 36.777344 77.703125 37.035156 77.445312 37.035156 77.132812 Z M 37.035156 77.132812 " fill-opacity="1" fill-rule="nonzero"/></g><g clip-path="url(#9769825e5d)"><path fill="#000000" d="M 66.902344 34.207031 C 66.765625 33.714844 66.46875 33.28125 66.0625 32.976562 C 65.855469 32.820312 65.621094 32.699219 65.378906 32.617188 L 64.980469 32.488281 C 64.101562 32.199219 63.398438 31.535156 63.066406 30.6875 L 62.996094 30.5 C 62.882812 30.226562 62.675781 30 62.414062 29.875 C 62.25 29.792969 62.074219 29.757812 61.898438 29.757812 L 50.652344 29.757812 C 50.476562 29.757812 50.300781 29.792969 50.140625 29.875 C 49.875 30 49.667969 30.226562 49.554688 30.5 L 49.484375 30.6875 C 49.152344 31.535156 48.449219 32.199219 47.570312 32.488281 L 47.175781 32.617188 C 46.929688 32.699219 46.695312 32.820312 46.488281 32.976562 C 46.082031 33.28125 45.785156 33.714844 45.648438 34.207031 L 44.753906 37.371094 C 47.917969 37.207031 52.480469 37.144531 56.277344 37.144531 C 60.074219 37.144531 64.632812 37.207031 67.796875 37.371094 Z M 51.835938 36.214844 L 51.132812 36.214844 L 51.132812 32.730469 L 49.867188 32.730469 L 49.867188 32.09375 L 53.101562 32.09375 L 53.101562 32.730469 L 51.835938 32.730469 Z M 56.632812 36.214844 L 56.214844 35.277344 L 54.128906 35.277344 L 53.710938 36.214844 L 52.957031 36.214844 L 54.796875 32.09375 L 55.546875 32.09375 L 57.386719 36.214844 Z M 60.433594 36.214844 L 59.40625 34.664062 L 59.378906 34.664062 L 58.351562 36.214844 L 57.476562 36.214844 L 58.90625 34.097656 L 57.578125 32.09375 L 58.449219 32.09375 L 59.378906 33.484375 L 59.40625 33.484375 L 60.339844 32.09375 L 61.210938 32.09375 L 59.878906 34.097656 L 61.3125 36.214844 Z M 62.683594 36.214844 L 61.980469 36.214844 L 61.980469 32.09375 L 62.683594 32.09375 Z M 62.683594 36.214844 " fill-opacity="1" fill-rule="nonzero"/></g><path fill="#000000" d="M 54.414062 34.632812 L 55.929688 34.632812 L 55.171875 32.9375 Z M 54.414062 34.632812 " fill-opacity="1" fill-rule="nonzero"/><path fill="#000000" d="M 80.050781 50.933594 C 78.128906 46.753906 75.878906 43.058594 73.066406 40.164062 C 72.257812 39.332031 71.167969 38.820312 70.007812 38.695312 C 65.238281 38.171875 47.316406 38.171875 42.546875 38.695312 C 41.386719 38.820312 40.296875 39.332031 39.484375 40.164062 C 36.671875 43.058594 34.421875 46.753906 32.5 50.933594 C 32.289062 51.40625 31.984375 51.835938 31.632812 52.207031 C 28.972656 55.054688 28.09375 58.320312 28.703125 61.933594 L 28.914062 68.449219 C 28.914062 69.769531 29.734375 70.429688 30.847656 70.859375 L 38.992188 71.007812 C 41.621094 71.042969 42.03125 69.722656 44.609375 69.722656 L 67.945312 69.722656 C 70.511719 69.722656 70.933594 71.042969 73.558594 71.007812 L 81.703125 70.859375 C 82.816406 70.429688 83.636719 69.769531 83.636719 68.449219 L 83.847656 61.933594 C 84.457031 58.320312 83.578125 55.054688 80.917969 52.207031 C 80.566406 51.835938 80.261719 51.40625 80.050781 50.933594 Z M 36.707031 47.65625 L 41.222656 41 C 41.363281 40.800781 41.597656 40.664062 41.855469 40.628906 C 51.652344 39.574219 61.039062 39.65625 71.320312 40.640625 C 71.578125 40.664062 71.8125 40.800781 71.953125 41 L 76.464844 47.65625 C 76.828125 48.1875 76.429688 48.894531 75.75 48.894531 L 37.421875 48.894531 C 36.753906 48.894531 36.34375 48.1875 36.707031 47.65625 Z M 32.726562 55.644531 L 31.628906 60.023438 C 31.628906 60.023438 29.890625 56.808594 32.726562 55.644531 Z M 35.839844 66.765625 C 35.839844 67.324219 35.378906 67.777344 34.816406 67.777344 L 33.195312 67.777344 C 32.628906 67.777344 32.171875 67.324219 32.171875 66.765625 L 32.171875 65.492188 C 32.171875 64.933594 32.628906 64.484375 33.195312 64.484375 L 34.816406 64.484375 C 35.378906 64.484375 35.839844 64.933594 35.839844 65.492188 Z M 41.179688 61.554688 C 41.050781 62.125 40.433594 62.449219 39.867188 62.296875 C 37.535156 61.671875 35.15625 61.046875 33.761719 60.453125 C 33.238281 60.226562 32.960938 59.65625 33.097656 59.109375 L 33.808594 56.269531 C 34.367188 54.742188 39.265625 58.394531 40.015625 58.964844 C 40.082031 59.011719 40.140625 59.066406 40.191406 59.128906 C 40.78125 59.816406 41.109375 60.617188 41.183594 61.539062 C 41.179688 61.546875 41.179688 61.550781 41.179688 61.554688 Z M 64.066406 67.285156 C 64.066406 67.558594 63.839844 67.777344 63.566406 67.777344 L 48.984375 67.777344 C 48.710938 67.777344 48.488281 67.558594 48.488281 67.285156 L 48.488281 64.972656 C 48.488281 64.703125 48.710938 64.484375 48.984375 64.484375 L 63.566406 64.484375 C 63.839844 64.484375 64.066406 64.703125 64.066406 64.972656 Z M 68.539062 57.554688 L 66.609375 61.695312 C 66.359375 62.238281 65.808594 62.585938 65.207031 62.585938 L 47.34375 62.585938 C 46.742188 62.585938 46.195312 62.238281 45.941406 61.695312 L 44.015625 57.554688 C 43.542969 56.542969 44.292969 55.390625 45.417969 55.390625 L 67.136719 55.390625 C 68.261719 55.390625 69.007812 56.542969 68.539062 57.554688 Z M 72.6875 62.296875 C 72.117188 62.449219 71.5 62.125 71.375 61.554688 C 71.371094 61.550781 71.371094 61.546875 71.371094 61.539062 C 71.441406 60.617188 71.769531 59.816406 72.359375 59.128906 C 72.410156 59.066406 72.46875 59.011719 72.535156 58.964844 C 73.285156 58.394531 78.1875 54.742188 78.746094 56.269531 L 79.457031 59.109375 C 79.59375 59.65625 79.3125 60.226562 78.789062 60.453125 C 77.394531 61.046875 75.019531 61.671875 72.6875 62.296875 Z M 80.382812 66.765625 C 80.382812 67.324219 79.921875 67.777344 79.359375 67.777344 L 77.738281 67.777344 C 77.171875 67.777344 76.714844 67.324219 76.714844 66.765625 L 76.714844 65.492188 C 76.714844 64.933594 77.171875 64.484375 77.738281 64.484375 L 79.359375 64.484375 C 79.921875 64.484375 80.382812 64.933594 80.382812 65.492188 Z M 80.925781 60.023438 L 79.824219 55.640625 C 82.660156 56.808594 80.925781 60.023438 80.925781 60.023438 Z M 80.925781 60.023438 " fill-opacity="1" fill-rule="nonzero"/></svg>